<svg width="33" height="32" viewBox="0 0 33 32" fill="none" xmlns="http://www.w3.org/2000/svg">
  <circle cx="16.4443" cy="16" r="16" fill="white" fill-opacity="0.88"/>
  <path
    d="M18.2804 9.97932C18.3401 9.57683 18.5639 9.45115 18.9309 9.50435C19.9619 9.65355 20.9575 9.91108 21.8941 10.3833C22.5169 10.6975 22.969 11.1521 23.2706 11.7886C24.0123 13.3538 24.4976 14.9984 24.7849 16.6989C24.9309 17.5625 25.004 18.4411 25.0583 19.3162C25.0741 19.5695 24.9652 19.8691 24.8211 20.0869C24.4221 20.691 23.8371 21.0954 23.1993 21.4193C22.3436 21.8541 21.43 22.1012 20.4815 22.2312C20.2257 22.2662 20.0332 22.1999 19.8853 21.9783C19.7047 21.7069 19.5063 21.447 19.3045 21.1667C19.7324 21.0114 20.1464 20.8988 20.5254 20.7145C21.0488 20.4597 21.5517 20.1609 22.0513 19.8606C22.2692 19.7295 22.3286 19.5078 22.1629 19.2954C22.0081 19.0965 21.8121 19.1304 21.6107 19.258C18.6359 21.1401 15.5302 21.1548 12.3467 19.8806C11.9789 19.7334 11.6504 19.4836 11.3123 19.2673C11.0993 19.1312 10.894 19.0869 10.7334 19.3085C10.5755 19.5263 10.6464 19.7542 10.8678 19.8702C11.6088 20.2581 12.361 20.6255 13.1128 20.9921C13.2522 21.0599 13.4109 21.0881 13.6154 21.1517C13.3693 21.4875 13.1582 21.8082 12.9094 22.0966C12.8309 22.188 12.646 22.2443 12.5201 22.2296C11.1563 22.0708 9.87652 21.6756 8.77351 20.819C8.65836 20.7296 8.55437 20.6251 8.44692 20.526C7.98168 20.0961 7.78411 19.6027 7.83764 18.9338C8.02635 16.5663 8.55476 14.2929 9.47714 12.1024C9.86189 11.1887 10.4677 10.5306 11.3939 10.221C12.2327 9.94038 13.0943 9.72102 13.9566 9.519C14.3979 9.41568 14.4965 9.52093 14.6325 10.0078C14.329 10.0807 14.0151 10.1235 13.7255 10.2322C12.9868 10.509 12.2559 10.807 11.5295 11.1143C11.2788 11.2203 11.0693 11.4057 11.2541 11.7122C11.4221 11.991 11.6477 11.895 11.8873 11.7724C14.9348 10.2106 17.9854 10.2102 21.0307 11.7789C21.2741 11.9046 21.4974 11.9829 21.6592 11.7018C21.8252 11.4135 21.6272 11.2535 21.4004 11.1208C20.5288 10.6112 19.588 10.2897 18.6028 10.088C18.5196 10.0711 18.4364 10.0522 18.354 10.0306C18.3332 10.0233 18.3155 10.0032 18.2804 9.97932ZM12.6206 16.5821C12.651 16.5964 12.6814 16.611 12.7119 16.6253C12.7172 16.7105 12.7134 16.7972 12.7288 16.8801C12.8328 17.4314 13.1066 17.8632 13.6543 18.0498C14.1222 18.2094 14.5447 18.0791 14.8909 17.7298C15.4721 17.1434 15.4736 16.1025 14.9005 15.5069C14.3864 14.9726 13.5568 14.9699 13.1062 15.5574C12.8817 15.8508 12.7789 16.2375 12.6206 16.5821ZM20.1942 16.6238C20.1984 15.6472 19.4289 14.9402 18.5912 15.1503C18.0085 15.2964 17.5591 15.9549 17.5745 16.6396C17.5907 17.3512 18.0359 17.9511 18.6444 18.0806C19.4578 18.2541 20.1899 17.5656 20.1942 16.6238Z"
    fill="#1F1E1E"/>
</svg>
