<svg width="33" height="32" viewBox="0 0 33 32" fill="none" xmlns="http://www.w3.org/2000/svg">
  <circle cx="16.4355" cy="16" r="16" fill="white" fill-opacity="0.88"/>
  <path
    d="M16.4373 24.7275H8.58322C8.41063 24.7275 8.24192 24.6763 8.09842 24.5804C7.95492 24.4845 7.84307 24.3483 7.77703 24.1888C7.71099 24.0293 7.69372 23.8539 7.72739 23.6846C7.76107 23.5154 7.84419 23.3599 7.96624 23.2378L9.68003 21.524C8.4258 19.9898 7.73102 18.0745 7.70997 16.093C7.68891 14.1115 8.34282 12.1818 9.56416 10.6213C10.7855 9.06081 12.5015 7.96243 14.4301 7.50679C16.3586 7.05115 18.3847 7.26539 20.1753 8.11428C21.9659 8.96317 23.4143 10.3961 24.2823 12.1776C25.1503 13.959 25.3861 15.9827 24.9511 17.916C24.5161 19.8493 23.4362 21.577 21.8888 22.8149C20.3415 24.0529 18.4189 24.7274 16.4373 24.7275Z"
    fill="#1F1E1E"/>
</svg>
