<svg width="33" height="32" viewBox="0 0 33 32" fill="none" xmlns="http://www.w3.org/2000/svg">
  <circle cx="16.9746" cy="16" r="16" fill="white" fill-opacity="0.88"/>
  <path
    d="M14.4681 7.77286C16.5039 6.90817 19.4701 6.90155 21.4097 7.76014C21.6858 7.45681 21.97 7.14483 22.2537 6.83335C22.6731 6.37276 23.178 6.04755 23.7653 5.83837C24.0662 5.73149 24.2498 5.79867 24.3469 6.11015C24.6209 6.9896 24.6977 7.87465 24.3733 8.7536C24.2554 9.07372 24.2803 9.31038 24.5203 9.56384C25.0628 10.1364 25.3007 10.8443 25.4085 11.6184C25.588 12.903 25.6993 14.1871 25.4248 15.4676C25.0134 17.3863 23.7297 18.5263 21.9751 19.1946C21.4 19.4134 20.7818 19.5178 20.1544 19.6821C20.1641 19.646 20.1473 19.673 20.1549 19.6857C20.6481 20.5438 20.7716 21.4772 20.7559 22.4503C20.736 23.683 20.7493 24.9166 20.7482 26.1493C20.7482 26.2745 20.7482 26.3992 20.7482 26.5554C20.5896 26.5682 20.4549 26.5875 20.3201 26.5875C18.7776 26.5906 17.235 26.5921 15.6919 26.5916C15.242 26.5916 15.2079 26.5554 15.2069 26.0903C15.2054 25.3442 15.2064 24.598 15.2064 23.941C14.5988 23.941 14.0238 23.9781 13.4548 23.9339C12.0343 23.8229 11.0627 23.0371 10.3773 21.8248C10.0499 21.2451 9.69095 20.6802 9.31369 20.1321C9.13473 19.8725 8.87645 19.6684 8.65782 19.4358C8.55919 19.331 8.4692 19.2185 8.35938 19.0903C8.82865 18.8281 9.27963 18.9065 9.65841 19.1009C10.0667 19.3101 10.4414 19.6175 10.7683 19.9443C11.1242 20.2995 11.3789 20.756 11.7303 21.1169C12.6307 22.0406 13.7289 22.1795 14.9145 21.8075C15.0401 21.7683 15.1626 21.58 15.2038 21.4365C15.3681 20.87 15.4992 20.2939 15.6512 19.6857C15.2287 19.5605 14.7127 19.4185 14.2043 19.2546C12.5981 18.7365 11.3215 17.8362 10.6971 16.1903C10.4063 15.4238 10.3336 14.6238 10.3361 13.814C10.3397 12.7865 10.3697 11.7548 10.7388 10.7833C10.9071 10.34 11.1761 9.92824 11.4415 9.53076C11.5884 9.31089 11.6642 9.12411 11.5823 8.86353C11.3088 7.99273 11.3388 7.11531 11.5615 6.23891C11.6779 5.78035 11.7989 5.71877 12.2504 5.8801C13.0867 6.17987 13.6785 6.78551 14.2185 7.4563C14.2983 7.55554 14.3756 7.6553 14.4681 7.77286Z"
    fill="#1F1E1E"/>
</svg>
