<svg width="33" height="32" viewBox="0 0 33 32" fill="none" xmlns="http://www.w3.org/2000/svg">
  <circle cx="16.4355" cy="16" r="16" fill="white" fill-opacity="0.88"/>
  <path fill-rule="evenodd" clip-rule="evenodd"
        d="M15.9547 7C13.6146 7 13.3209 7.01039 12.4018 7.05284C11.4845 7.0955 10.8584 7.24295 10.3105 7.45937C9.74377 7.68284 9.26306 7.98178 8.7841 8.46836C8.30481 8.95467 8.01037 9.44289 7.78957 10.0182C7.57597 10.5747 7.43057 11.2107 7.3893 12.1419C7.34817 13.0752 7.3374 13.3737 7.3374 15.7501C7.3374 18.1264 7.34784 18.4237 7.38944 19.3571C7.43165 20.2887 7.57685 20.9245 7.78977 21.4808C8.01003 22.0563 8.30441 22.5445 8.78357 23.0309C9.26232 23.5176 9.74303 23.8173 10.3094 24.0408C10.8577 24.2571 11.484 24.4046 12.4011 24.4473C13.3202 24.4897 13.6137 24.5001 15.9537 24.5001C18.294 24.5001 18.5867 24.4897 19.5059 24.4473C20.4231 24.4046 21.05 24.2571 21.5983 24.0408C22.1648 23.8173 22.6448 23.5176 23.1236 23.0309C23.6028 22.5445 23.8973 22.0563 24.1181 21.481C24.3299 20.9245 24.4753 20.2884 24.5184 19.3573C24.5597 18.4239 24.5705 18.1264 24.5705 15.7501C24.5705 13.3737 24.5597 13.0754 24.5184 12.1421C24.4753 11.2106 24.3299 10.5747 24.1181 10.0184C23.8973 9.44289 23.6028 8.95467 23.1236 8.46836C22.6443 7.98164 22.165 7.68264 21.5978 7.45937C21.0484 7.24295 20.4219 7.0955 19.5046 7.05284C18.5855 7.01039 18.2929 7 15.952 7H15.9547ZM15.6674 8.57671H15.6676L15.9547 8.57678C18.2553 8.57678 18.528 8.58519 19.4366 8.62709C20.2767 8.66612 20.7327 8.80865 21.0364 8.92842C21.4385 9.08701 21.7252 9.27664 22.0266 9.58289C22.3281 9.88914 22.5149 10.1808 22.6714 10.5891C22.7893 10.8972 22.9299 11.3602 22.9681 12.2134C23.0094 13.1358 23.0184 13.4129 23.0184 15.7481C23.0184 18.0832 23.0094 18.3603 22.9681 19.2827C22.9297 20.1359 22.7893 20.5989 22.6714 20.907C22.5152 21.3153 22.3281 21.6061 22.0266 21.9121C21.725 22.2184 21.4387 22.408 21.0364 22.5666C20.733 22.6869 20.2767 22.8291 19.4366 22.8681C18.5282 22.91 18.2553 22.9191 15.9547 22.9191C13.6539 22.9191 13.3812 22.91 12.4729 22.8681C11.6328 22.8287 11.1768 22.6862 10.8729 22.5664C10.4708 22.4078 10.1835 22.2182 9.88197 21.9119C9.58039 21.6057 9.39372 21.3147 9.23721 20.9062C9.11927 20.5982 8.97872 20.1351 8.94048 19.282C8.89915 18.3596 8.89094 18.0825 8.89094 15.7459C8.89094 13.4092 8.89915 13.1336 8.94048 12.2112C8.97885 11.358 9.11927 10.895 9.23721 10.5866C9.39339 10.1782 9.58039 9.88661 9.88197 9.58036C10.1835 9.27411 10.4708 9.08448 10.8729 8.92555C11.1767 8.80523 11.6328 8.66305 12.4729 8.62381C13.2678 8.58737 13.5758 8.57644 15.1817 8.57459V8.57678C15.3318 8.57657 15.4932 8.57664 15.6674 8.57671ZM19.5202 11.0793C19.5202 10.4995 19.9834 10.0297 20.5542 10.0297V10.0293C21.1251 10.0293 21.5882 10.4997 21.5882 11.0793C21.5882 11.659 21.1251 12.1293 20.5542 12.1293C19.9834 12.1293 19.5202 11.659 19.5202 11.0793ZM15.9545 11.2565C13.5109 11.2566 11.5297 13.2686 11.5297 15.7501C11.5297 18.2317 13.511 20.2427 15.9547 20.2427C18.3985 20.2427 20.379 18.2317 20.379 15.7501C20.379 13.2685 18.3983 11.2565 15.9545 11.2565ZM18.8269 15.7501C18.8269 14.1391 17.5409 12.8334 15.9547 12.8334C14.3684 12.8334 13.0825 14.1391 13.0825 15.7501C13.0825 17.3608 14.3684 18.6668 15.9547 18.6668C17.5409 18.6668 18.8269 17.3608 18.8269 15.7501Z"
        fill="#1F1E1E"/>
</svg>
