<svg width="33" height="32" viewBox="0 0 33 32" fill="none" xmlns="http://www.w3.org/2000/svg">
  <circle cx="16.9658" cy="16" r="16" fill="white" fill-opacity="0.88"/>
  <path
    d="M16.2934 12.4234C16.3004 12.2554 16.3056 12.0933 16.3145 11.9312C16.3565 11.174 16.4527 10.4265 16.7252 9.71206C16.8552 9.37119 17.0331 9.0582 17.2967 8.80172C17.6005 8.5062 17.9644 8.32778 18.3844 8.27165C18.9826 8.19173 19.5118 8.36495 19.989 8.72217C20.2289 8.90171 20.4242 9.12437 20.6139 9.35335C20.647 9.39312 20.68 9.4329 20.7153 9.47044C20.7866 9.54664 20.8646 9.61058 20.9842 9.58939C20.9842 10.041 20.9842 10.486 20.9842 10.935C20.8278 10.9346 20.6782 10.9101 20.5311 10.8666C20.2348 10.7793 19.9775 10.6239 19.7621 10.4053C19.5991 10.2403 19.4398 10.0696 19.2964 9.88751C19.1241 9.66782 18.9047 9.58753 18.6347 9.59125C18.4293 9.59422 18.2853 9.6879 18.1716 9.84662C18.0301 10.0444 17.9529 10.2711 17.8868 10.5012C17.7873 10.848 17.7364 11.2034 17.7089 11.5625C17.6885 11.829 17.6763 12.0963 17.6607 12.3635C17.6595 12.3817 17.6607 12.4 17.6607 12.4237C17.7476 12.4308 17.8333 12.4382 17.9187 12.4453C19.0053 12.5371 20.054 12.7828 21.0562 13.217C21.2772 13.3129 21.4922 13.4218 21.7075 13.53C21.7532 13.553 21.7814 13.5482 21.8201 13.5207C22.135 13.2936 22.4814 13.1334 22.8632 13.0631C23.6879 12.9111 24.4105 13.1107 24.9935 13.7292C25.3571 14.1151 25.5428 14.5845 25.5758 15.112C25.6193 15.8038 25.4068 16.4115 24.9601 16.9386C24.9174 16.9892 24.8714 17.0379 24.8224 17.0821C24.7886 17.1126 24.7845 17.142 24.7934 17.184C24.8554 17.4732 24.8933 17.7653 24.8866 18.062C24.8695 18.7887 24.6664 19.4622 24.3028 20.0886C23.8806 20.8157 23.3032 21.3989 22.6251 21.8862C21.8739 22.4263 21.0473 22.8125 20.1665 23.0884C19.6369 23.2541 19.0966 23.3746 18.5474 23.4519C17.8137 23.5552 17.0765 23.5868 16.3361 23.5448C15.3301 23.488 14.3501 23.3036 13.3999 22.9664C12.5261 22.656 11.7136 22.2308 10.9902 21.6453C10.3597 21.135 9.83574 20.535 9.47591 19.8012C9.17958 19.1965 9.02547 18.5578 9.05035 17.8839C9.05926 17.6457 9.10828 17.4092 9.14133 17.1721C9.14616 17.1375 9.14207 17.1148 9.11645 17.0896C8.6831 16.6647 8.42576 16.1495 8.36523 15.5466C8.2891 14.7886 8.50782 14.1281 9.06855 13.5984C9.40981 13.2761 9.82014 13.0921 10.2854 13.0337C10.962 12.949 11.5669 13.1389 12.1184 13.524C12.1548 13.5497 12.1808 13.5523 12.2205 13.5311C13.0467 13.0917 13.922 12.7929 14.8388 12.6111C15.3056 12.5185 15.7765 12.4602 16.251 12.4271C16.2626 12.4267 16.2752 12.4249 16.2934 12.4234ZM16.9707 13.4627C16.6398 13.4828 16.3079 13.4936 15.9781 13.5244C15.3866 13.5794 14.8054 13.6932 14.2358 13.863C13.3282 14.134 12.4819 14.5277 11.7314 15.1135C11.2338 15.5019 10.8083 15.9551 10.5049 16.5138C10.1154 17.2319 10.0036 17.9858 10.2268 18.7794C10.395 19.3771 10.7232 19.8812 11.1466 20.3265C11.7307 20.9409 12.4322 21.3863 13.2023 21.7268C14.3011 22.2122 15.456 22.4497 16.6532 22.4888C17.4635 22.5152 18.2656 22.4438 19.0576 22.2695C19.911 22.0814 20.7239 21.7859 21.4799 21.3431C22.145 20.9532 22.7336 20.4748 23.1847 19.8418C23.4941 19.408 23.7072 18.9333 23.7856 18.4025C23.8706 17.8278 23.7822 17.278 23.5446 16.7517C23.2523 16.1052 22.7963 15.59 22.2478 15.1518C21.6039 14.637 20.8809 14.2675 20.1056 13.9961C19.0911 13.6411 18.0446 13.4776 16.9707 13.4627ZM11.1581 14.2106C11.1377 14.2006 11.1236 14.192 11.1083 14.1861C10.8774 14.0969 10.639 14.0571 10.3931 14.0972C10.0214 14.1582 9.73325 14.3455 9.5654 14.6894C9.41984 14.9871 9.4035 15.3031 9.47294 15.6235C9.49819 15.7387 9.5409 15.8502 9.5758 15.9636C9.58174 15.9629 9.58806 15.9621 9.594 15.9614C9.98316 15.2618 10.5227 14.6968 11.1581 14.2106ZM22.7733 14.211C23.4087 14.6968 23.9482 15.2626 24.3415 15.9696C24.4547 15.7298 24.5015 15.4886 24.4933 15.2354C24.4855 15.0012 24.4347 14.7778 24.3054 14.5801C23.9727 14.0701 23.3084 13.9645 22.7733 14.211Z"
    fill="#1F1E1E"/>
  <path
    d="M22.9955 12.152C21.9349 12.149 21.0875 11.2755 21.1139 10.2153C21.1391 9.20315 21.9691 8.37496 22.9999 8.37794C24.0482 8.38091 24.8915 9.22917 24.8856 10.2726C24.8797 11.3134 24.0315 12.1568 22.9955 12.152ZM21.7838 10.2622C21.779 10.9294 22.3271 11.4799 22.9984 11.4825C23.6617 11.4851 24.2086 10.9417 24.2135 10.2752C24.2183 9.60163 23.6806 9.05409 23.0085 9.0474C22.3367 9.04108 21.7882 9.58528 21.7838 10.2622Z"
    fill="#1F1E1E"/>
  <path
    d="M20.8606 16.9809C20.8606 17.6488 20.3158 18.1934 19.6474 18.1942C18.9779 18.1949 18.4316 17.6474 18.4316 16.976C18.4316 16.3058 18.9801 15.7583 19.6489 15.7598C20.3199 15.762 20.8606 16.3069 20.8606 16.9809Z"
    fill="#1F1E1E"/>
  <path
    d="M13.0684 16.9745C13.0706 16.3017 13.6165 15.7579 14.2867 15.7598C14.9566 15.7616 15.501 16.3118 15.4973 16.9824C15.4932 17.6552 14.947 18.1971 14.2763 18.1938C13.6083 18.1904 13.0658 17.6429 13.0684 16.9745Z"
    fill="#1F1E1E"/>
  <path
    d="M20.3134 19.9179C20.2384 20.0302 20.17 20.1476 20.0872 20.2536C19.7118 20.7331 19.2198 21.0557 18.6661 21.2914C18.255 21.4665 17.8258 21.572 17.3816 21.6141C16.7838 21.6702 16.1974 21.6088 15.6256 21.4245C15.112 21.2587 14.643 21.0104 14.2353 20.6532C14.0191 20.4636 13.8301 20.2506 13.6883 19.9986C13.6723 19.9703 13.6578 19.9417 13.6504 19.9071C13.7102 19.9421 13.7692 19.9781 13.8294 20.0119C14.2761 20.2614 14.754 20.4275 15.2509 20.542C15.9338 20.6992 16.6256 20.755 17.3248 20.7234C18.0014 20.6929 18.6639 20.5829 19.307 20.3666C19.6427 20.2536 19.9654 20.1112 20.2673 19.9238C20.2777 19.9175 20.2885 19.9123 20.2993 19.9067C20.3041 19.9101 20.3089 19.9138 20.3134 19.9179Z"
    fill="#1F1E1E"/>
</svg>
