<svg width="33" height="32" viewBox="0 0 33 32" fill="none" xmlns="http://www.w3.org/2000/svg">
  <circle cx="16.9829" cy="16" r="16" fill="white" fill-opacity="0.88"/>
  <path
    d="M13.6373 22.4742C13.6763 21.8505 13.7124 21.2466 13.7514 20.6436C13.7932 19.994 13.8425 19.3448 13.8771 18.6947C13.887 18.5105 13.9463 18.3783 14.0866 18.2521C16.4287 16.1477 18.7661 14.0376 21.1042 11.9284C21.1432 11.8933 21.1917 11.8643 21.2187 11.8217C21.2716 11.7389 21.3122 11.6481 21.3583 11.561C21.249 11.5391 21.1312 11.4814 21.0318 11.5037C20.8907 11.5355 20.7559 11.6147 20.6306 11.6935C17.7179 13.5329 14.8064 15.3735 11.8976 17.2192C11.7457 17.3155 11.6185 17.3378 11.4427 17.2805C10.2219 16.8836 8.99681 16.5007 7.77446 16.1086C7.6337 16.0637 7.49094 16.0075 7.36767 15.9279C7.09529 15.752 7.05115 15.4809 7.29769 15.2747C7.52196 15.0873 7.78798 14.9312 8.05997 14.8222C9.22386 14.356 10.3969 13.9126 11.5664 13.4608C15.4374 11.9658 19.3085 10.4707 23.1799 8.97725C23.2908 8.93466 23.4054 8.89088 23.5219 8.87575C23.9811 8.81644 24.3541 9.08791 24.3657 9.55641C24.3748 9.93137 24.308 10.3139 24.2301 10.6837C23.4014 14.618 22.5647 18.5503 21.7273 22.483C21.5333 23.3933 20.9153 23.6174 20.1594 23.0585C18.8913 22.1207 17.6237 21.1825 16.3428 20.2344C16.292 20.2778 16.2407 20.3172 16.1945 20.3622C15.5826 20.956 14.971 21.5499 14.3602 22.1454C14.1685 22.3333 13.9578 22.4782 13.6373 22.4742Z"
    fill="#1F1E1E"/>
</svg>
