<svg width="32" height="32" viewBox="0 0 32 32" fill="none" xmlns="http://www.w3.org/2000/svg">
  <circle cx="16" cy="16.0005" r="16" fill="white" fill-opacity="0.88"/>
  <path
    d="M7.38525 21.7197C9.33605 21.8841 11.0974 21.4011 12.7074 20.1862C11.902 20.1487 11.2075 19.9159 10.5983 19.4577C9.99045 19.0004 9.56215 18.4107 9.31089 17.6574C9.85522 17.7283 10.3757 17.736 10.9029 17.5857C8.8267 17.0796 7.97054 15.2323 8.04178 13.9735C8.54089 14.2147 9.05152 14.3885 9.65984 14.403C8.7384 13.7305 8.20645 12.87 8.08359 11.7858C7.98888 10.9476 8.17488 10.1584 8.55412 9.55547C10.5198 11.8695 13.0094 13.1442 16.054 13.3585C16.0314 13.1433 15.999 12.9456 15.9909 12.747C15.9299 11.2725 16.5373 10.1448 17.7843 9.37228C19.1156 8.54812 20.9649 8.7548 22.0924 9.84371C22.2345 9.98079 22.3526 10.0103 22.5446 9.96328C23.2519 9.78991 23.9186 9.52302 24.553 9.15962C24.5543 9.60885 23.9344 10.4313 23.1 11.141C23.3133 11.1022 23.5287 11.071 23.7399 11.0223C23.9647 10.9706 24.1882 10.9087 24.4079 10.8387C24.6208 10.7708 24.8281 10.6871 25.038 10.6102C25.05 10.6226 25.0615 10.635 25.0734 10.6474C24.7829 10.9877 24.5069 11.3417 24.1976 11.6641C23.9502 11.922 23.6661 12.1454 23.3901 12.3738C23.3048 12.4447 23.2745 12.5139 23.2762 12.6228C23.3218 15.1542 22.5663 17.4272 21.0289 19.4291C19.4714 21.4575 17.4182 22.6988 14.9039 23.1566C12.9975 23.5038 11.1252 23.3594 9.3015 22.6869C8.62919 22.4396 7.9876 22.1241 7.38525 21.7197Z"
    fill="#1F1E1E"/>
</svg>
