<svg width="64" height="64" viewBox="0 0 64 64" fill="none" xmlns="http://www.w3.org/2000/svg">
  <g clip-path="url(#clip0)">
    <ellipse rx="32" ry="32" transform="matrix(1 0 0 -1 32 32.0001)" fill="#2A2827"/>
    <mask id="mask0" mask-type="alpha" maskUnits="userSpaceOnUse" x="14" y="28" width="36" height="17">
      <rect x="14.6665" y="28.6665" width="34.6667" height="16" fill="#C4C4C4"/>
    </mask>
    <g mask="url(#mask0)">
      <path d="M16.6672 45.6333L28.1506 33.6511C30.2502 31.4603 33.752 31.4603 35.8516 33.6511L47.335 45.6333"
            stroke="white" stroke-width="2.24667"/>
      <path d="M16.6672 45.6333L28.1506 33.6511C30.2502 31.4603 33.752 31.4603 35.8516 33.6511L47.335 45.6333"
            stroke="url(#paint0_linear)" stroke-width="2.24667"/>
    </g>
    <g filter="url(#filter0_d)">
      <mask id="mask1" mask-type="alpha" maskUnits="userSpaceOnUse" x="14" y="19" width="36" height="17">
        <rect width="34.6667" height="16" transform="matrix(1 0 0 -1 14.6665 35.3333)" fill="#C4C4C4"/>
      </mask>
      <g mask="url(#mask1)">
        <path d="M16.6672 18.3665L28.1506 30.3486C30.2502 32.5394 33.752 32.5394 35.8516 30.3486L47.335 18.3665"
              stroke="white" stroke-width="2.24667"/>
        <path d="M16.6672 18.3665L28.1506 30.3486C30.2502 32.5394 33.752 32.5394 35.8516 30.3486L47.335 18.3665"
              stroke="url(#paint1_linear)" stroke-width="2.24667"/>
      </g>
    </g>
  </g>
  <defs>
    <filter id="filter0_d" x="13.1898" y="17.9999" width="37.6231" height="19.1152" filterUnits="userSpaceOnUse"
            color-interpolation-filters="sRGB">
      <feFlood flood-opacity="0" result="BackgroundImageFix"/>
      <feColorMatrix in="SourceAlpha" type="matrix" values="0 0 0 0 0 0 0 0 0 0 0 0 0 0 0 0 0 0 127 0"
                     result="hardAlpha"/>
      <feOffset dy="1.33333"/>
      <feGaussianBlur stdDeviation="1.33333"/>
      <feColorMatrix type="matrix" values="0 0 0 0 0 0 0 0 0 0 0 0 0 0 0 0 0 0 0.7 0"/>
      <feBlend mode="normal" in2="BackgroundImageFix" result="effect1_dropShadow"/>
      <feBlend mode="normal" in="SourceGraphic" in2="effect1_dropShadow" result="shape"/>
    </filter>
    <linearGradient id="paint0_linear" x1="42.4204" y1="44.1799" x2="34.7775" y2="27.9499"
                    gradientUnits="userSpaceOnUse">
      <stop stop-color="#FF8506"/>
      <stop offset="0.5805" stop-color="#FD3947"/>
      <stop offset="1" stop-color="#FB0078"/>
    </linearGradient>
    <linearGradient id="paint1_linear" x1="42.4204" y1="19.8199" x2="34.7775" y2="36.0499"
                    gradientUnits="userSpaceOnUse">
      <stop stop-color="#FF8506"/>
      <stop offset="0.5805" stop-color="#FD3947"/>
      <stop offset="1" stop-color="#FB0078"/>
    </linearGradient>
    <clipPath id="clip0">
      <rect width="64" height="64" fill="white" transform="matrix(1 0 0 -1 0 64)"/>
    </clipPath>
  </defs>
</svg>
