<svg width="44" height="44" viewBox="0 0 44 44" fill="none" xmlns="http://www.w3.org/2000/svg">
  <path d="M22 0C34.1514 0 44 9.8506 44 22C44 34.1514 34.1514 44 22 44C9.8506 44 0 34.1504 0 22C0 9.8506 9.8506 0 22 0Z"
        fill="#F5AC37"/>
  <path
    d="M22.8035 23.585H31.1632C31.3414 23.585 31.4255 23.585 31.4384 23.3514C31.5067 22.5009 31.5067 21.6456 31.4384 20.7942C31.4384 20.6288 31.3562 20.5605 31.177 20.5605H14.5399C14.334 20.5605 14.2786 20.6288 14.2786 20.8219V23.2692C14.2786 23.585 14.2786 23.585 14.6082 23.585H22.8035ZM30.5048 17.7004C30.5286 17.638 30.5286 17.5697 30.5048 17.5083C30.3652 17.2044 30.1999 16.9143 30.0078 16.6421C29.7187 16.1768 29.3782 15.7481 28.9901 15.363C28.8069 15.1303 28.5951 14.9214 28.3575 14.7442C27.1675 13.7314 25.7528 13.0147 24.2321 12.6543C23.4649 12.482 22.6808 12.3999 21.8947 12.4068H14.5112C14.3053 12.4068 14.2776 12.489 14.2776 12.6682V17.5489C14.2776 17.7548 14.2776 17.8103 14.5389 17.8103H30.4058C30.4058 17.8103 30.5434 17.7826 30.5711 17.7004H30.5038H30.5048ZM30.5048 26.4451C30.2712 26.4194 30.0356 26.4194 29.8019 26.4451H14.5538C14.3479 26.4451 14.2786 26.4451 14.2786 26.7204V31.4922C14.2786 31.712 14.2786 31.7674 14.5538 31.7674H21.5937C21.9303 31.7932 22.2669 31.7694 22.5966 31.6991C23.6183 31.6259 24.6232 31.4041 25.5815 31.0388C25.93 30.918 26.2666 30.7606 26.5844 30.5715H26.6804C28.3308 29.7132 29.6712 28.3648 30.5167 26.7095C30.5167 26.7095 30.6127 26.5016 30.5048 26.4471V26.4451ZM11.5154 34.2415V34.1593V30.9556V29.8696V26.6382C11.5154 26.459 11.5154 26.4323 11.2957 26.4323H8.31177C8.14644 26.4323 8.07812 26.4323 8.07812 26.2125V23.5998H11.2679C11.4461 23.5998 11.5154 23.5999 11.5154 23.3662V20.7813C11.5154 20.616 11.5154 20.5754 11.2957 20.5754H8.31177C8.14644 20.5754 8.07812 20.5754 8.07812 20.3556V17.936C8.07812 17.7845 8.07813 17.7439 8.29791 17.7439H11.2541C11.46 17.7439 11.5154 17.7439 11.5154 17.4826V10.0714C11.5154 9.85158 11.5154 9.79614 11.7907 9.79614H22.1026C22.8511 9.82584 23.5945 9.90801 24.3301 10.0436C25.8458 10.3238 27.3021 10.8654 28.6337 11.6386C29.5168 12.1583 30.3296 12.786 31.0533 13.5087C31.5978 14.074 32.0888 14.6858 32.5244 15.3372C32.9571 15.9976 33.3164 16.7034 33.5986 17.441C33.6332 17.6331 33.8174 17.7628 34.0094 17.7301H36.4706C36.7864 17.7301 36.7864 17.7301 36.8003 18.033V20.2883C36.8003 20.508 36.7181 20.5635 36.4973 20.5635H34.5995C34.4074 20.5635 34.352 20.5635 34.3659 20.811C34.4411 21.6485 34.4411 22.4891 34.3659 23.3266C34.3659 23.5603 34.3659 23.588 34.6282 23.588H36.7993C36.8953 23.7117 36.7993 23.8355 36.7993 23.9602C36.8132 24.1196 36.8132 24.281 36.7993 24.4404V26.1046C36.7993 26.3382 36.731 26.4075 36.5241 26.4075H33.9253C33.7441 26.3729 33.5679 26.4887 33.5263 26.6689C32.9076 28.2776 31.9176 29.7201 30.6385 30.8764C30.1712 31.2972 29.6801 31.6932 29.1673 32.0585C28.6169 32.3753 28.0813 32.705 27.517 32.9663C26.4784 33.4336 25.3894 33.7781 24.2717 33.9969C23.2104 34.187 22.1343 34.2731 21.0542 34.2583H11.5115V34.2444L11.5154 34.2415Z"
    fill="#FEFEFD"/>
</svg>
