<svg width="44" height="44" viewBox="0 0 44 44" fill="none" xmlns="http://www.w3.org/2000/svg">
  <path
    d="M0 22C0 9.84974 9.84974 0 22 0C34.1503 0 44 9.84974 44 22C44 34.1503 34.1503 44 22 44C9.84974 44 0 34.1503 0 22Z"
    fill="white"/>
  <path
    d="M18.7138 27.1643L19.2108 25.2062C19.2108 25.1467 19.1816 25.0872 19.1233 25.0872H9.71249C9.65297 25.0872 9.625 25.0277 9.625 24.9682L14.4762 6.93452C14.4762 6.90535 14.5357 6.875 14.5637 6.875H19.7947C23.3306 6.875 25.5517 7.83917 26.9254 9.21283C27.6005 9.91798 28.1249 10.7533 28.4666 11.6678C28.8082 12.5823 28.96 13.5568 28.9127 14.5319C28.9162 15.6249 28.7384 16.7109 28.3865 17.7458C28.0985 18.6338 27.6747 19.4718 27.1301 20.23C27.101 20.2895 27.1301 20.3764 27.1896 20.3764H34.146C34.1637 20.3745 34.1817 20.3783 34.197 20.3875C34.2124 20.3966 34.2243 20.4106 34.2311 20.4271C34.2378 20.4437 34.239 20.462 34.2343 20.4793C34.2297 20.4965 34.2196 20.5118 34.2055 20.5228L15.9933 38.3577C15.9793 38.3709 15.9613 38.3791 15.9421 38.3812C15.923 38.3833 15.9036 38.3791 15.8871 38.3692C15.8705 38.3593 15.8577 38.3443 15.8504 38.3264C15.8432 38.3086 15.8419 38.2888 15.8469 38.2702L18.7138 27.1643Z"
    fill="url(#paint0_radial)"/>
  <defs>
    <radialGradient id="paint0_radial" cx="0" cy="0" r="1" gradientUnits="userSpaceOnUse"
                    gradientTransform="translate(18.5245 27.4489) scale(25.3603 25.3629)">
      <stop stop-color="#41BEF0"/>
      <stop offset="0.469" stop-color="#828CBE"/>
      <stop offset="0.54" stop-color="#8F80AE"/>
      <stop offset="0.794" stop-color="#BC5A79"/>
      <stop offset="0.917" stop-color="#CD4B64"/>
    </radialGradient>
  </defs>
</svg>
