<svg width="44" height="44" viewBox="0 0 44 44" fill="none" xmlns="http://www.w3.org/2000/svg">
  <path
    d="M22 44C34.1503 44 44 34.1503 44 22C44 9.84974 34.1503 0 22 0C9.84974 0 0 9.84974 0 22C0 34.1503 9.84974 44 22 44Z"
    fill="black"/>
  <path
    d="M22 44C34.1503 44 44 34.1503 44 22C44 9.84974 34.1503 0 22 0C9.84974 0 0 9.84974 0 22C0 34.1503 9.84974 44 22 44Z"
    fill="#201A2D"/>
  <path style="mix-blend-mode:soft-light"
        d="M22 44C34.1503 44 44 34.1503 44 22C44 9.84974 34.1503 0 22 0C9.84974 0 0 9.84974 0 22C0 34.1503 9.84974 44 22 44Z"
        fill="url(#paint0_linear)"/>
  <g filter="url(#filter0_d)">
    <path
      d="M31.9996 12.5926L31.1196 13.4726C33.2194 15.7689 34.3839 18.7679 34.3839 21.8796C34.3839 24.9912 33.2194 27.9902 31.1196 30.2865L31.9996 31.1665C34.3348 28.6335 35.6313 25.3145 35.6313 21.8693C35.6313 18.4241 34.3348 15.1051 31.9996 12.5721V12.5926ZM13.4932 12.6689C15.7895 10.5691 18.7885 9.40462 21.9002 9.40462C25.0118 9.40462 28.0108 10.5691 30.3071 12.6689L31.1871 11.7889C28.6541 9.45368 25.3351 8.15719 21.8899 8.15719C18.4447 8.15719 15.1257 9.45368 12.5927 11.7889L13.4932 12.6689ZM12.6689 30.2953C10.5716 27.9995 9.40868 25.0024 9.40868 21.8928C9.40868 18.7832 10.5716 15.786 12.6689 13.4902L11.7889 12.6102C9.45372 15.1432 8.15723 18.4623 8.15723 21.9074C8.15723 25.3526 9.45372 28.6717 11.7889 31.2046L12.6689 30.2953ZM30.2954 31.1078C27.999 33.2077 25.0001 34.3721 21.8884 34.3721C18.7768 34.3721 15.7778 33.2077 13.4815 31.1078L12.6015 31.9878C15.1345 34.3231 18.4535 35.6196 21.8987 35.6196C25.3439 35.6196 28.6629 34.3231 31.1959 31.9878L30.2954 31.1078ZM27.4471 18.955C27.2711 17.1188 25.6871 16.5028 23.6836 16.315V13.7865H22.1348V16.2681H20.897V13.7865H19.3599V16.3326H16.2183V17.99C16.2183 17.99 17.3623 17.9694 17.3447 17.99C17.551 17.9673 17.758 18.0256 17.9221 18.1525C18.0863 18.2794 18.1948 18.4652 18.2247 18.6705V25.6401C18.2203 25.7125 18.2014 25.7833 18.1691 25.8483C18.1369 25.9133 18.0919 25.9712 18.037 26.0185C17.983 26.0667 17.9198 26.1035 17.8513 26.1267C17.7827 26.1499 17.7102 26.159 17.638 26.1534C17.6586 26.171 16.5116 26.1534 16.5116 26.1534L16.2183 28.0044H19.3306V30.5916H20.8794V28.0425H22.1172V30.5798H23.669V28.022C26.2855 27.8636 28.11 27.2182 28.3388 24.7689C28.5236 22.7977 27.5967 21.9177 26.1154 21.5628C27.0159 21.1198 27.5732 20.2985 27.4471 18.955ZM25.2764 24.4638C25.2764 26.3881 21.9794 26.1681 20.9292 26.1681V22.7537C21.9794 22.7566 25.2764 22.4545 25.2764 24.4638ZM24.5578 19.6532C24.5578 21.4132 21.8063 21.199 20.9322 21.199V18.0956C21.8063 18.0956 24.5578 17.8198 24.5578 19.6532Z"
      fill="white"/>
    <path
      d="M21.8886 37.9163C13.0387 37.9148 5.8667 30.7399 5.8667 21.89C5.8667 13.0416 13.0416 5.86667 21.89 5.86667C30.7399 5.86667 37.9148 13.0387 37.9163 21.8885C37.9167 23.9934 37.5024 26.0778 36.697 28.0225C35.8917 29.9673 34.7111 31.7343 33.2227 33.2227C31.7344 34.7111 29.9673 35.8917 28.0226 36.697C26.0778 37.5023 23.9935 37.9167 21.8886 37.9163ZM21.8886 7.11627C13.7354 7.12214 7.13097 13.7353 7.1339 21.8885C7.13683 30.0417 13.7486 36.6491 21.9003 36.6491C30.0535 36.6491 36.6638 30.0417 36.6667 21.8885C36.6675 19.9479 36.2857 18.0262 35.5432 16.2332C34.8008 14.4402 33.7122 12.8111 32.3396 11.4392C30.9671 10.0672 29.3377 8.97924 27.5444 8.23748C25.7511 7.49573 23.8292 7.11473 21.8886 7.11627Z"
      fill="white"/>
  </g>
  <defs>
    <filter id="filter0_d" x="4.8667" y="5.36667" width="34.0496" height="34.0496" filterUnits="userSpaceOnUse"
            color-interpolation-filters="sRGB">
      <feFlood flood-opacity="0" result="BackgroundImageFix"/>
      <feColorMatrix in="SourceAlpha" type="matrix" values="0 0 0 0 0 0 0 0 0 0 0 0 0 0 0 0 0 0 127 0"
                     result="hardAlpha"/>
      <feOffset dy="0.5"/>
      <feGaussianBlur stdDeviation="0.5"/>
      <feColorMatrix type="matrix" values="0 0 0 0 0 0 0 0 0 0 0 0 0 0 0 0 0 0 0.204257 0"/>
      <feBlend mode="normal" in2="BackgroundImageFix" result="effect1_dropShadow"/>
      <feBlend mode="normal" in="SourceGraphic" in2="effect1_dropShadow" result="shape"/>
    </filter>
    <linearGradient id="paint0_linear" x1="22" y1="0" x2="22" y2="44" gradientUnits="userSpaceOnUse">
      <stop stop-color="white" stop-opacity="0.5"/>
      <stop offset="1" stop-opacity="0.5"/>
    </linearGradient>
  </defs>
</svg>
