<svg width="44" height="44" viewBox="0 0 44 44" fill="none" xmlns="http://www.w3.org/2000/svg">
  <path
    d="M22 44C34.1503 44 44 34.1503 44 22C44 9.84974 34.1503 0 22 0C9.84974 0 0 9.84974 0 22C0 34.1503 9.84974 44 22 44Z"
    fill="#627EEA"/>
  <path d="M22.1187 9.5652V18.7585L29.8889 22.2306L22.1187 9.5652Z" fill="white" fill-opacity="0.602"/>
  <path d="M22.119 9.5652L14.3477 22.2306L22.119 18.7585V9.5652Z" fill="white"/>
  <path d="M22.1187 28.1882V34.4349L29.8941 23.6776L22.1187 28.1882Z" fill="white" fill-opacity="0.602"/>
  <path d="M22.119 34.4349V28.1872L14.3477 23.6776L22.119 34.4349Z" fill="white"/>
  <path d="M22.1187 26.7422L29.8889 22.2305L22.1187 18.7605V26.7422Z" fill="white" fill-opacity="0.2"/>
  <path d="M14.3477 22.2305L22.119 26.7422V18.7605L14.3477 22.2305Z" fill="white" fill-opacity="0.602"/>
</svg>
