<svg width="24" height="24" viewBox="0 0 24 24" fill="none" xmlns="http://www.w3.org/2000/svg">
  <path
    d="M12 24C18.6274 24 24 18.6274 24 12C24 5.37258 18.6274 0 12 0C5.37258 0 0 5.37258 0 12C0 18.6274 5.37258 24 12 24Z"
    fill="#000A1E"/>
  <path fill-rule="evenodd" clip-rule="evenodd"
        d="M10.125 11.9999L14.025 15.9749L16.5 13.4999C16.95 13.0499 17.625 13.0499 18 13.4999C18.45 13.9499 18.45 14.6999 18 15.1499L14.775 18.4499C14.325 18.8999 13.65 18.8999 13.2 18.4499L8.55005 13.6499V16.4999C8.55005 17.0999 8.02505 17.6249 7.42505 17.6249C6.82505 17.6249 6.30005 17.0999 6.30005 16.4999V7.4999C6.30005 6.8999 6.82505 6.3749 7.42505 6.3749C8.02505 6.3749 8.55005 6.8999 8.55005 7.4999V10.3499L13.2 5.5499C13.65 5.0999 14.325 5.0999 14.775 5.5499L18 8.8499C18.45 9.2999 18.45 10.0499 18 10.4999C17.55 10.9499 16.875 10.9499 16.5 10.4999L14.025 7.9499L10.125 11.9999ZM14.025 10.8749C14.625 10.8749 15.15 11.3999 15.15 11.9999C15.15 12.5999 14.625 13.1249 14.025 13.1249C13.425 13.1249 12.9 12.5999 12.9 11.9999C12.9 11.3999 13.425 10.8749 14.025 10.8749Z"
        fill="#23AF91"/>
</svg>
