<svg width="32" height="32" viewBox="0 0 32 32" fill="none" xmlns="http://www.w3.org/2000/svg">
  <circle cx="16" cy="16" r="16" fill="white"/>
  <g clip-path="url(#clip0)">
    <path
      d="M13.4916 10.0067C13.2533 9.97262 13.2419 9.96127 13.3554 9.94992C13.5711 9.91586 14.0706 9.96127 14.4225 10.0407C15.2398 10.2337 15.9777 10.7332 16.761 11.6073L16.9653 11.8457L17.2605 11.8003C18.5205 11.5959 19.8147 11.7549 20.8931 12.2544C21.1882 12.3906 21.6537 12.663 21.7104 12.7311C21.7331 12.7538 21.7672 12.9014 21.7899 13.049C21.8694 13.5825 21.8353 13.9799 21.665 14.2864C21.5742 14.4566 21.5742 14.502 21.631 14.6496C21.6764 14.7631 21.8126 14.8426 21.9375 14.8426C22.2099 14.8426 22.4937 14.4112 22.6299 13.8096L22.6867 13.5712L22.7889 13.6847C23.3678 14.3318 23.8219 15.2286 23.89 15.8643L23.9127 16.0346L23.8105 15.887C23.6403 15.6259 23.4813 15.4556 23.2656 15.308C22.8797 15.0469 22.471 14.9675 21.3926 14.9107C20.4163 14.854 19.8601 14.7745 19.3152 14.5929C18.3843 14.2864 17.9075 13.889 16.8064 12.4246C16.3183 11.7776 16.0118 11.4257 15.7053 11.1305C15.0355 10.4835 14.3657 10.1429 13.4916 10.0067Z"
      fill="#FF007A"/>
    <path
      d="M21.9492 11.4481C21.9719 11.0167 22.0287 10.7329 22.1535 10.4718C22.1989 10.3696 22.2444 10.2788 22.2557 10.2788C22.2671 10.2788 22.2444 10.3583 22.2103 10.4491C22.1195 10.6988 22.1081 11.0507 22.1649 11.4481C22.2444 11.9589 22.2784 12.027 22.8233 12.5833C23.0731 12.8443 23.3682 13.1736 23.4817 13.3098L23.6747 13.5595L23.4817 13.3779C23.2433 13.1508 22.6984 12.7195 22.5736 12.6627C22.4941 12.6173 22.4827 12.6173 22.426 12.6741C22.3806 12.7195 22.3692 12.7876 22.3692 13.1168C22.3579 13.6276 22.2898 13.9455 22.1195 14.2747C22.0287 14.445 22.0173 14.4109 22.0968 14.2179C22.1535 14.0704 22.1649 14.0022 22.1649 13.5141C22.1649 12.5265 22.0514 12.2881 21.3589 11.8908C21.1886 11.7886 20.8935 11.641 20.7232 11.5616C20.5415 11.4821 20.4053 11.414 20.4167 11.414C20.4394 11.3913 21.1091 11.5843 21.3702 11.6978C21.7676 11.8567 21.8357 11.8681 21.8811 11.8567C21.9151 11.8227 21.9378 11.7319 21.9492 11.4481Z"
      fill="#FF007A"/>
    <path
      d="M13.9575 13.1405C13.4807 12.4821 13.1742 11.4604 13.2424 10.6998L13.2651 10.4614L13.3786 10.4841C13.5829 10.5182 13.9348 10.6544 14.1051 10.7566C14.5592 11.029 14.7635 11.4036 14.9565 12.3345C15.0133 12.6069 15.0927 12.9248 15.1268 13.027C15.1835 13.1972 15.3992 13.5946 15.5808 13.8443C15.7057 14.0259 15.6263 14.1167 15.3425 14.094C14.9111 14.0486 14.3321 13.6513 13.9575 13.1405Z"
      fill="#FF007A"/>
    <path
      d="M21.3709 18.0776C19.1232 17.1694 18.3286 16.3861 18.3286 15.058C18.3286 14.865 18.34 14.7061 18.34 14.7061C18.3513 14.7061 18.4308 14.7742 18.5329 14.8536C18.987 15.2169 19.4979 15.3758 20.9169 15.5802C21.7456 15.705 22.2223 15.7958 22.6537 15.9434C24.0273 16.3975 24.8787 17.3283 25.083 18.5884C25.1398 18.9517 25.1057 19.6441 25.0149 20.0074C24.9355 20.2912 24.7084 20.8134 24.6517 20.8247C24.6403 20.8247 24.6176 20.768 24.6176 20.6772C24.5949 20.2004 24.3565 19.7463 23.9592 19.3944C23.4824 18.9857 22.8694 18.6792 21.3709 18.0776Z"
      fill="#FF007A"/>
    <path
      d="M19.7812 18.4522C19.7585 18.282 19.7017 18.0663 19.6677 17.9755L19.6109 17.8052L19.7131 17.93C19.8606 18.1003 19.9742 18.3047 20.0763 18.5885C20.1558 18.8041 20.1558 18.8723 20.1558 19.2242C20.1558 19.5647 20.1444 19.6442 20.0763 19.8372C19.9628 20.1437 19.8266 20.3594 19.5995 20.5977C19.1909 21.0178 18.6573 21.2448 17.8968 21.347C17.7605 21.3583 17.3746 21.3924 17.034 21.4151C16.1826 21.4605 15.615 21.5513 15.1042 21.7329C15.0361 21.7556 14.968 21.7784 14.9566 21.767C14.9339 21.7443 15.2858 21.54 15.5696 21.4037C15.9669 21.2108 16.3756 21.1086 17.2724 20.9497C17.7151 20.8815 18.1692 20.7907 18.2827 20.7453C19.4066 20.3934 19.9628 19.5193 19.7812 18.4522Z"
      fill="#FF007A"/>
    <path
      d="M20.8141 20.2787C20.519 19.6316 20.4509 19.0186 20.6098 18.4397C20.6325 18.3829 20.6552 18.3262 20.6779 18.3262C20.7006 18.3262 20.7687 18.3602 20.8368 18.4056C20.9731 18.4964 21.2569 18.6554 21.9834 19.0527C22.9029 19.5522 23.4251 19.9381 23.7883 20.3809C24.1062 20.7668 24.2992 21.2095 24.39 21.7544C24.4467 22.0609 24.4127 22.7988 24.3332 23.1053C24.0835 24.0702 23.5159 24.8421 22.6872 25.2849C22.5623 25.353 22.4602 25.3984 22.4488 25.3984C22.4374 25.3984 22.4829 25.2849 22.551 25.1486C22.8234 24.5697 22.8575 24.0135 22.6531 23.3891C22.5283 23.0031 22.2672 22.5377 21.745 21.7544C21.1206 20.8463 20.9731 20.6079 20.8141 20.2787Z"
      fill="#FF007A"/>
    <path
      d="M12.3561 23.7527C13.1961 23.0489 14.2291 22.5494 15.1827 22.3905C15.5914 22.3224 16.2725 22.3451 16.6471 22.4473C17.2487 22.6062 17.7936 22.9467 18.0774 23.3668C18.3499 23.7754 18.4747 24.1273 18.5996 24.9106C18.645 25.2171 18.7018 25.535 18.7131 25.6031C18.8039 26.0117 18.9856 26.3296 19.2126 26.4999C19.5645 26.761 20.1775 26.7723 20.7792 26.5453C20.8813 26.5112 20.9722 26.4772 20.9722 26.4885C20.9949 26.5112 20.6884 26.7156 20.484 26.8177C20.2002 26.9653 19.9732 27.0107 19.6667 27.0107C19.1218 27.0107 18.6564 26.7269 18.2818 26.1593C18.2023 26.0458 18.0434 25.7166 17.9071 25.4101C17.5098 24.4906 17.3055 24.2182 16.8401 23.9116C16.4314 23.6506 15.9092 23.5938 15.5119 23.7868C14.9897 24.0365 14.8535 24.7063 15.2167 25.1149C15.3643 25.2852 15.6368 25.4214 15.8638 25.4555C16.2838 25.5123 16.6471 25.1831 16.6471 24.763C16.6471 24.4906 16.5449 24.3317 16.2725 24.2068C15.9092 24.0479 15.5119 24.2295 15.5232 24.5814C15.5232 24.729 15.5914 24.8198 15.7389 24.8879C15.8298 24.9333 15.8297 24.9333 15.7616 24.922C15.4324 24.8539 15.353 24.4452 15.6141 24.1841C15.9319 23.8662 16.6017 24.0025 16.8287 24.4452C16.9195 24.6268 16.9309 24.9901 16.8514 25.2171C16.6584 25.7166 16.1135 25.9777 15.5573 25.8301C15.1827 25.728 15.0238 25.6258 14.5697 25.1604C13.7751 24.343 13.4686 24.1841 12.3334 24.0138L12.1177 23.9798L12.3561 23.7527Z"
      fill="#FF007A"/>
    <path fill-rule="evenodd" clip-rule="evenodd"
          d="M6.38549 5.48813C9.03049 8.70072 13.1058 13.6956 13.3102 13.968C13.4804 14.195 13.4123 14.4107 13.1285 14.5697C12.9696 14.6605 12.6404 14.7513 12.4815 14.7513C12.2998 14.7513 12.0842 14.6605 11.9366 14.5129C11.8344 14.4107 11.3917 13.7637 10.3927 12.2085C9.63214 11.0165 8.98508 10.0289 8.97373 10.0175C8.92832 9.99484 8.92832 9.99484 10.3133 12.4696C11.1874 14.0248 11.4711 14.581 11.4711 14.6491C11.4711 14.7967 11.4257 14.8762 11.2441 15.0805C10.9376 15.4211 10.8014 15.807 10.6992 16.613C10.5857 17.5098 10.2792 18.1455 9.4051 19.2239C8.89427 19.8597 8.8148 19.9732 8.68993 20.2343C8.531 20.5521 8.4856 20.7337 8.46289 21.1424C8.44019 21.5738 8.4856 21.8462 8.61047 22.2549C8.72399 22.6182 8.84886 22.8566 9.15536 23.322C9.41645 23.7307 9.57538 24.0372 9.57538 24.1507C9.57538 24.2415 9.59808 24.2415 10.0068 24.1507C10.983 23.9236 11.789 23.5377 12.2317 23.0609C12.5042 22.7657 12.5723 22.6068 12.5723 22.1981C12.5723 21.937 12.5609 21.8803 12.4928 21.7214C12.3793 21.4716 12.1636 21.2673 11.6982 20.9494C11.0852 20.5294 10.8241 20.1889 10.756 19.7348C10.6992 19.3488 10.7673 19.0877 11.1079 18.3726C11.4598 17.6347 11.5506 17.3282 11.6074 16.5789C11.6414 16.1022 11.6982 15.9092 11.8344 15.7616C11.982 15.6027 12.1069 15.5459 12.4588 15.5005C13.0377 15.4211 13.4123 15.2735 13.7075 14.9897C13.9686 14.7513 14.0821 14.5129 14.0934 14.161L14.1048 13.8999L13.9572 13.741C13.4237 13.128 6.03358 5 5.99953 5C5.98818 5 6.16981 5.21569 6.38549 5.48813ZM9.87053 21.6305C9.9954 21.4149 9.92729 21.1424 9.72295 21.0062C9.52997 20.8813 9.23482 20.9381 9.23482 21.1084C9.23482 21.1538 9.25753 21.1992 9.32564 21.2219C9.42781 21.2786 9.43916 21.3354 9.35969 21.4603C9.28023 21.5851 9.28023 21.6987 9.3824 21.7781C9.54132 21.903 9.75701 21.8349 9.87053 21.6305Z"
          fill="#FF007A"/>
    <path fill-rule="evenodd" clip-rule="evenodd"
          d="M14.4682 15.6601C14.1957 15.7395 13.9346 16.0347 13.8552 16.3298C13.8098 16.5115 13.8325 16.8407 13.9119 16.9428C14.0368 17.1018 14.1503 17.1472 14.4682 17.1472C15.0925 17.1472 15.6261 16.8747 15.6828 16.5455C15.7396 16.2731 15.5012 15.8985 15.172 15.7282C15.0017 15.6374 14.6498 15.6033 14.4682 15.6601ZM15.1947 16.2277C15.2855 16.0914 15.2515 15.9439 15.0812 15.8417C14.7747 15.6487 14.3092 15.8076 14.3092 16.1028C14.3092 16.2504 14.5476 16.4093 14.7747 16.4093C14.9222 16.4093 15.1266 16.3185 15.1947 16.2277Z"
          fill="#FF007A"/>
  </g>
  <defs>
    <clipPath id="clip0">
      <rect width="20" height="22" fill="white" transform="translate(6 5)"/>
    </clipPath>
  </defs>
</svg>
