<svg width="24" height="25" viewBox="0 0 24 25" fill="none" xmlns="http://www.w3.org/2000/svg">
  <path
    d="M2 4.49951C2 3.39494 2.89543 2.49951 4 2.49951C5.10457 2.49951 6 3.39494 6 4.49951C6 5.60408 5.10457 6.49951 4 6.49951C2.89543 6.49951 2 5.60408 2 4.49951Z"
    fill="white"/>
  <path
    d="M2 12.4995C2 11.3949 2.89543 10.4995 4 10.4995C5.10457 10.4995 6 11.3949 6 12.4995C6 13.6041 5.10457 14.4995 4 14.4995C2.89543 14.4995 2 13.6041 2 12.4995Z"
    fill="white"/>
  <path
    d="M2 20.4995C2 19.3949 2.89543 18.4995 4 18.4995C5.10457 18.4995 6 19.3949 6 20.4995C6 21.6041 5.10457 22.4995 4 22.4995C2.89543 22.4995 2 21.6041 2 20.4995Z"
    fill="white"/>
  <path
    d="M10 4.49951C10 3.39494 10.8954 2.49951 12 2.49951C13.1046 2.49951 14 3.39494 14 4.49951C14 5.60408 13.1046 6.49951 12 6.49951C10.8954 6.49951 10 5.60408 10 4.49951Z"
    fill="white"/>
  <path
    d="M10 12.4995C10 11.3949 10.8954 10.4995 12 10.4995C13.1046 10.4995 14 11.3949 14 12.4995C14 13.6041 13.1046 14.4995 12 14.4995C10.8954 14.4995 10 13.6041 10 12.4995Z"
    fill="white"/>
  <path
    d="M10 20.4995C10 19.3949 10.8954 18.4995 12 18.4995C13.1046 18.4995 14 19.3949 14 20.4995C14 21.6041 13.1046 22.4995 12 22.4995C10.8954 22.4995 10 21.6041 10 20.4995Z"
    fill="white"/>
  <path
    d="M18 4.49951C18 3.39494 18.8954 2.49951 20 2.49951C21.1046 2.49951 22 3.39494 22 4.49951C22 5.60408 21.1046 6.49951 20 6.49951C18.8954 6.49951 18 5.60408 18 4.49951Z"
    fill="white"/>
  <path
    d="M18 12.4995C18 11.3949 18.8954 10.4995 20 10.4995C21.1046 10.4995 22 11.3949 22 12.4995C22 13.6041 21.1046 14.4995 20 14.4995C18.8954 14.4995 18 13.6041 18 12.4995Z"
    fill="white"/>
  <path
    d="M18 20.4995C18 19.3949 18.8954 18.4995 20 18.4995C21.1046 18.4995 22 19.3949 22 20.4995C22 21.6041 21.1046 22.4995 20 22.4995C18.8954 22.4995 18 21.6041 18 20.4995Z"
    fill="white"/>
</svg>
