<svg width="16" height="16" viewBox="0 0 16 16" fill="none" xmlns="http://www.w3.org/2000/svg">
  <g opacity="0.64">
    <path fill-rule="evenodd" clip-rule="evenodd"
          d="M7.99967 14.6666C11.6816 14.6666 14.6663 11.6818 14.6663 7.99992C14.6663 4.31802 11.6816 1.33325 7.99967 1.33325C4.31778 1.33325 1.33301 4.31802 1.33301 7.99992C1.33301 11.6818 4.31778 14.6666 7.99967 14.6666ZM7.50441 6.24234V11.3333H8.49541V6.24234H7.50441ZM7.56075 5.28448C7.68449 5.39938 7.83253 5.45683 8.00488 5.45683C8.17502 5.45683 8.32196 5.39938 8.4457 5.28448C8.56943 5.16737 8.6313 5.02817 8.6313 4.86687C8.6313 4.70336 8.56943 4.56415 8.4457 4.44925C8.32196 4.33215 8.17502 4.27359 8.00488 4.27359C7.83253 4.27359 7.68449 4.33215 7.56075 4.44925C7.43923 4.56415 7.37846 4.70336 7.37846 4.86687C7.37846 5.02817 7.43923 5.16737 7.56075 5.28448Z"
          fill="white"/>
  </g>
</svg>
