<svg width="16" height="16" viewBox="0 0 16 16" fill="none" xmlns="http://www.w3.org/2000/svg">
  <path fill-rule="evenodd" clip-rule="evenodd"
        d="M8.00005 2.33325C4.87538 2.33325 2.33338 4.87525 2.33338 7.99992C2.33338 11.1246 4.87538 13.6666 8.00005 13.6666C11.1247 13.6666 13.6667 11.1246 13.6667 7.99992C13.6667 4.87525 11.1247 2.33325 8.00005 2.33325ZM8.00004 14.6666C4.32404 14.6666 1.33337 11.6759 1.33337 7.99992C1.33337 4.32392 4.32404 1.33325 8.00004 1.33325C11.676 1.33325 14.6667 4.32392 14.6667 7.99992C14.6667 11.6759 11.676 14.6666 8.00004 14.6666Z"
        fill="#B87503"/>
  <path fill-rule="evenodd" clip-rule="evenodd"
        d="M10.2875 10.4616C10.2002 10.4616 10.1122 10.4389 10.0315 10.3916L7.51817 8.89222C7.3675 8.80156 7.27417 8.63822 7.27417 8.46222V5.23022C7.27417 4.95422 7.49817 4.73022 7.77417 4.73022C8.05084 4.73022 8.27417 4.95422 8.27417 5.23022V8.17822L10.5442 9.53156C10.7808 9.67356 10.8588 9.98022 10.7175 10.2176C10.6235 10.3742 10.4575 10.4616 10.2875 10.4616Z"
        fill="#B87503"/>
</svg>
