<svg width="269" height="44" viewBox="0 0 269 44" fill="none" xmlns="http://www.w3.org/2000/svg">
  <path
    d="M52.7692 18.1374L40.9093 1.90246C40.0253 0.691805 38.6609 0 37.162 0C35.6631 0 34.2987 0.695007 33.4148 1.90246L32.124 3.6672L30.8333 1.90246C29.9493 0.691805 28.5849 0 27.086 0C25.5871 0 24.2227 0.695007 23.3388 1.90246L22.0641 3.64799L20.7893 1.90246C19.9054 0.691805 18.541 0 17.0421 0C15.5432 0 14.1788 0.695007 13.2948 1.90246L1.43485 18.1374C-0.253023 20.4466 -0.253023 23.5534 1.43485 25.8626L13.2948 42.0975C14.1788 43.3082 15.5432 44 17.0421 44C18.541 44 19.9054 43.305 20.7893 42.0975L27.1021 33.4564L28.4056 35.2404C28.4088 35.2468 28.4152 35.2532 28.4184 35.2596L33.4148 42.0975C34.2987 43.3082 35.6631 44 37.162 44C38.6609 44 40.0253 43.305 40.9093 42.0975L52.7692 25.8626C54.4571 23.5534 54.4571 20.4466 52.7692 18.1374ZM25.2348 3.28607C25.6736 2.68715 26.3494 2.34445 27.0892 2.34445C27.8291 2.34445 28.5081 2.68715 28.9437 3.28607L30.6764 5.65614L27.1053 10.5436L23.5181 5.63372L25.2348 3.28607ZM18.8997 40.7139C18.4609 41.3129 17.7851 41.6556 17.0453 41.6556C16.3054 41.6556 15.6264 41.3129 15.1909 40.7139L3.33091 24.479C2.24836 22.9961 2.24836 21.0039 3.33091 19.5178L15.1909 3.28287C15.6296 2.68394 16.3054 2.34124 17.0453 2.34124C17.7851 2.34124 18.4641 2.68394 18.8997 3.28287L20.6164 5.63052L11.482 18.1342C9.79415 20.4434 9.79415 23.5502 11.4852 25.8626L12.1802 26.8042L18.304 35.2371C19.0823 36.3037 20.2385 36.9699 21.5292 37.1108L18.8997 40.7139ZM23.9089 33.86C23.4701 34.4557 22.7943 34.8016 22.0512 34.8016C21.3114 34.8016 20.6324 34.4589 20.2 33.8632L13.9033 25.1932L13.9001 25.1964L13.3749 24.4822C12.2923 22.9993 12.2923 21.0071 13.3749 19.521L22.0673 7.62265L25.6544 12.5325L21.558 18.1406C19.8701 20.4499 19.8701 23.5566 21.558 25.8658L25.6544 31.4739L23.9089 33.86ZM27.1053 14.5151L30.7596 19.5178C31.8422 21.0007 31.8422 22.9929 30.7596 24.479L27.1053 29.4817L23.4509 24.479C22.3683 22.9961 22.3683 21.0039 23.4509 19.5178L27.1053 14.5151ZM32.6525 25.8626C34.3404 23.5534 34.3404 20.4466 32.6525 18.1374L28.5561 12.5293L32.1272 7.64187L40.8036 19.521C41.8862 21.0039 41.8862 22.9961 40.7972 24.4886L39.4072 26.4199L34.0041 33.86C33.5653 34.4589 32.8895 34.8016 32.1497 34.8016C31.4162 34.8016 30.7468 34.4653 30.3113 33.8792L28.5529 31.4739L32.6525 25.8626ZM50.8796 24.479L39.0197 40.7139C38.5809 41.3129 37.9051 41.6556 37.1652 41.6556C36.4254 41.6556 35.7464 41.3129 35.3108 40.7139L32.6813 37.114C33.9688 36.9731 35.1251 36.3069 35.9065 35.2371L40.5474 28.8444L40.5538 28.8476L41.3161 27.7906L42.2032 26.5672L42.1968 26.564L42.6997 25.8626C44.3875 23.5534 44.3875 20.4466 42.6997 18.1374L33.5813 5.65614L35.314 3.28607C35.7528 2.68715 36.4286 2.34445 37.1684 2.34445C37.9083 2.34445 38.5841 2.68715 39.0229 3.28607L50.8828 19.521C51.9622 21.0039 51.9621 22.9961 50.8796 24.479Z"
    fill="url(#paint0_linear_319:3072)"/>
  <path
    d="M22.051 37.1427C21.8717 37.1427 21.6923 37.1331 21.5194 37.1139L18.9731 40.6242L20.8948 41.979L25.5517 35.5862C24.6677 36.579 23.3994 37.1427 22.051 37.1427Z"
    fill="url(#paint1_linear_319:3072)"/>
  <path
    d="M32.143 37.1427C32.3224 37.1427 32.5017 37.1331 32.6747 37.1139L35.2209 40.6241L33.2992 41.9789L28.668 35.5926C29.5487 36.5854 30.7946 37.1427 32.143 37.1427Z"
    fill="url(#paint2_linear_319:3072)"/>
  <path d="M25.6344 31.4545L27.1141 33.4754L24.8625 36.4989L23.3828 34.5356L25.6344 31.4545Z"
        fill="url(#paint3_linear_319:3072)"/>
  <path d="M20.6149 5.63361L22.069 7.63535L16.7972 14.8769L14.9556 13.4196L20.6149 5.63361Z"
        fill="url(#paint4_linear_319:3072)"/>
  <path d="M25.6529 12.5261L27.0942 14.5278L23.7345 19.1751L21.8896 17.7178L25.6529 12.5261Z"
        fill="url(#paint5_linear_319:3072)"/>
  <path d="M30.6761 5.65308L32.1238 7.64522L28.5591 12.5231L27.105 10.5341L30.6761 5.65308Z"
        fill="url(#paint6_linear_319:3072)"/>
  <path
    d="M86.0824 15.2294V28.71H83.3088V20.1233L77.7872 28.71H74.6868L69.1652 20.1553V28.71H66.3916V15.2294H69.1652L76.2274 26.3047L83.312 15.2294H86.0824Z"
    fill="white"/>
  <path d="M126.18 15.2294V28.71H123.406V23.1083H113.506V28.71H110.733V15.2294H113.506V20.7959H123.406V15.2294H126.18Z"
        fill="white"/>
  <path
    d="M100.283 16.0364C99.9819 15.2966 99.2452 14.7745 98.3869 14.7745C97.5285 14.7745 96.7951 15.2934 96.4908 16.03L90.54 28.7099H93.5347L94.867 25.7729H101.913L103.252 28.7099H106.275L100.283 16.0364ZM95.9175 23.4573L98.3837 18.0222L100.859 23.4573H95.9175Z"
    fill="white"/>
  <path
    d="M140.273 16.0364C139.972 15.2966 139.236 14.7745 138.377 14.7745C137.519 14.7745 136.786 15.2934 136.481 16.03L130.531 28.7099H133.525L134.857 25.7729H141.904L143.242 28.7099H146.266L140.273 16.0364ZM135.908 23.4573L138.374 18.0222L140.85 23.4573H135.908Z"
    fill="white"/>
  <path
    d="M154.648 24.0364H157.416C157.47 24.501 157.682 24.9246 158.051 25.3072C158.434 25.6762 158.932 25.97 159.547 26.1886C160.162 26.3936 160.852 26.4961 161.618 26.4961C162.315 26.4961 162.889 26.4209 163.34 26.2706C163.79 26.1203 164.125 25.9085 164.344 25.6352C164.563 25.3619 164.672 25.0339 164.672 24.6513C164.672 24.2823 164.535 24.0022 164.262 23.8109C163.989 23.6059 163.558 23.4419 162.971 23.3189C162.383 23.1823 161.611 23.0456 160.654 22.909C159.903 22.7996 159.192 22.6493 158.523 22.458C157.853 22.253 157.258 21.9934 156.739 21.6791C156.234 21.3648 155.83 20.9822 155.53 20.5312C155.243 20.0666 155.099 19.52 155.099 18.8914C155.099 18.1125 155.318 17.4292 155.755 16.8416C156.206 16.254 156.869 15.7962 157.744 15.4682C158.618 15.1403 159.691 14.9763 160.962 14.9763C162.875 14.9763 164.344 15.3862 165.369 16.2062C166.407 17.0124 166.913 18.1261 166.886 19.5473H164.221C164.166 18.7411 163.825 18.1603 163.196 17.805C162.581 17.4497 161.802 17.2721 160.859 17.2721C159.985 17.2721 159.26 17.4019 158.687 17.6615C158.126 17.9212 157.846 18.3653 157.846 18.9939C157.846 19.2398 157.914 19.4585 158.051 19.6498C158.188 19.8275 158.42 19.9846 158.748 20.1213C159.076 20.2579 159.52 20.3877 160.08 20.5107C160.641 20.6337 161.338 20.7567 162.171 20.8797C162.95 20.989 163.654 21.1393 164.282 21.3306C164.925 21.5083 165.471 21.7474 165.922 22.0481C166.387 22.335 166.742 22.704 166.988 23.1549C167.234 23.6059 167.357 24.1593 167.357 24.8153C167.357 25.6215 167.145 26.3253 166.722 26.9266C166.312 27.5142 165.669 27.972 164.795 28.2999C163.934 28.6279 162.813 28.7919 161.433 28.7919C160.449 28.7919 159.582 28.6894 158.83 28.4844C158.078 28.2658 157.429 27.9788 156.883 27.6235C156.336 27.2682 155.892 26.8787 155.55 26.4551C155.209 26.0315 154.963 25.6079 154.812 25.1842C154.676 24.7606 154.621 24.378 154.648 24.0364Z"
    fill="#F7653B"/>
  <path d="M169.824 15.2428H183.803V17.518H169.824V15.2428ZM175.461 17.2311H178.187V28.5049H175.461V17.2311Z"
        fill="#F7653B"/>
  <path
    d="M188.244 25.6147V23.3394H197.018V25.6147H188.244ZM184.944 28.5049L191.176 15.2428H194.127L200.42 28.5049H197.448L191.996 16.5546H193.307L187.896 28.5049H184.944Z"
    fill="#F7653B"/>
  <path
    d="M203.578 28.5049V15.2428H212.577C213.602 15.2428 214.49 15.3862 215.241 15.6732C216.007 15.9465 216.601 16.3838 217.025 16.9851C217.448 17.5727 217.66 18.3311 217.66 19.2603C217.66 19.8889 217.551 20.4219 217.332 20.8592C217.114 21.2965 216.806 21.6518 216.41 21.9251C216.027 22.1984 215.583 22.4102 215.077 22.5605C214.572 22.6972 214.032 22.786 213.458 22.827L213.171 22.663C214.128 22.6767 214.914 22.7587 215.528 22.909C216.143 23.0456 216.601 23.3053 216.902 23.6879C217.216 24.0569 217.373 24.6103 217.373 25.3482V28.5049H214.647V25.5327C214.647 25.0271 214.558 24.6376 214.381 24.3643C214.203 24.0774 213.882 23.8792 213.417 23.7699C212.966 23.6606 212.31 23.6059 211.449 23.6059H206.304V28.5049H203.578ZM206.304 21.4741H212.577C213.342 21.4741 213.923 21.2896 214.319 20.9207C214.729 20.5517 214.934 20.0529 214.934 19.4243C214.934 18.8231 214.729 18.3653 214.319 18.051C213.923 17.7367 213.342 17.5795 212.577 17.5795H206.304V21.4741Z"
    fill="#F7653B"/>
  <path d="M220.574 15.2428H234.554V17.518H220.574V15.2428ZM226.211 17.2311H228.938V28.5049H226.211V17.2311Z"
        fill="#F7653B"/>
  <path
    d="M240.492 22.9705V26.2296H250.72V28.5049H237.766V15.2428H250.7V17.518H240.492V20.8182H248.855V22.9705H240.492Z"
    fill="#F7653B"/>
  <path
    d="M254.749 28.5049V15.2428H263.748C264.773 15.2428 265.661 15.3862 266.413 15.6732C267.178 15.9465 267.772 16.3838 268.196 16.9851C268.619 17.5727 268.831 18.3311 268.831 19.2603C268.831 19.8889 268.722 20.4219 268.503 20.8592C268.285 21.2965 267.977 21.6518 267.581 21.9251C267.198 22.1984 266.754 22.4102 266.249 22.5605C265.743 22.6972 265.203 22.786 264.629 22.827L264.342 22.663C265.299 22.6767 266.085 22.7587 266.7 22.909C267.314 23.0456 267.772 23.3053 268.073 23.6879C268.387 24.0569 268.544 24.6103 268.544 25.3482V28.5049H265.818V25.5327C265.818 25.0271 265.729 24.6376 265.552 24.3643C265.374 24.0774 265.053 23.8792 264.588 23.7699C264.137 23.6606 263.481 23.6059 262.62 23.6059H257.475V28.5049H254.749ZM257.475 21.4741H263.748C264.513 21.4741 265.094 21.2896 265.49 20.9207C265.9 20.5517 266.105 20.0529 266.105 19.4243C266.105 18.8231 265.9 18.3653 265.49 18.051C265.094 17.7367 264.513 17.5795 263.748 17.5795H257.475V21.4741Z"
    fill="#F7653B"/>
  <defs>
    <linearGradient id="paint0_linear_319:3072" x1="10.1119" y1="38.9921" x2="44.0962" y2="5.00786"
                    gradientUnits="userSpaceOnUse">
      <stop stop-color="#FF8506"/>
      <stop offset="0.5805" stop-color="#FD3947"/>
      <stop offset="1" stop-color="#FB0078"/>
    </linearGradient>
    <linearGradient id="paint1_linear_319:3072" x1="24.0738" y1="35.5376" x2="20.1039" y2="41.1558"
                    gradientUnits="userSpaceOnUse">
      <stop stop-color="#78005B"/>
      <stop offset="0.3483" stop-color="#7A025A" stop-opacity="0.6517"/>
      <stop offset="0.51" stop-color="#820955" stop-opacity="0.49"/>
      <stop offset="0.6332" stop-color="#8E154E" stop-opacity="0.3668"/>
      <stop offset="0.7369" stop-color="#A12643" stop-opacity="0.2631"/>
      <stop offset="0.8283" stop-color="#B83C36" stop-opacity="0.1717"/>
      <stop offset="0.9111" stop-color="#D65725" stop-opacity="0.0889"/>
      <stop offset="0.9857" stop-color="#F87711" stop-opacity="0.0143"/>
      <stop offset="1" stop-color="#FF7E0D" stop-opacity="0"/>
    </linearGradient>
    <linearGradient id="paint2_linear_319:3072" x1="33.7736" y1="40.7376" x2="30.0372" y2="35.3633"
                    gradientUnits="userSpaceOnUse">
      <stop stop-color="#FF7E0D" stop-opacity="0"/>
      <stop offset="0.00928743" stop-color="#F97811" stop-opacity="0.0127"/>
      <stop offset="0.0651" stop-color="#D65825" stop-opacity="0.0888"/>
      <stop offset="0.1269" stop-color="#B93D36" stop-opacity="0.1729"/>
      <stop offset="0.1949" stop-color="#A12643" stop-opacity="0.2657"/>
      <stop offset="0.272" stop-color="#8F154E" stop-opacity="0.3707"/>
      <stop offset="0.3632" stop-color="#820955" stop-opacity="0.495"/>
      <stop offset="0.4822" stop-color="#7A025A" stop-opacity="0.6573"/>
      <stop offset="0.7336" stop-color="#78005B"/>
    </linearGradient>
    <linearGradient id="paint3_linear_319:3072" x1="24.2029" y1="35.5088" x2="27.2244" y2="31.1631"
                    gradientUnits="userSpaceOnUse">
      <stop stop-color="#FF7E0D" stop-opacity="0"/>
      <stop offset="0.0133" stop-color="#F97910" stop-opacity="0.0192"/>
      <stop offset="0.1144" stop-color="#D25427" stop-opacity="0.1659"/>
      <stop offset="0.219" stop-color="#B1363A" stop-opacity="0.3175"/>
      <stop offset="0.3263" stop-color="#981E48" stop-opacity="0.4731"/>
      <stop offset="0.4375" stop-color="#860D53" stop-opacity="0.6344"/>
      <stop offset="0.5551" stop-color="#7B0359" stop-opacity="0.8048"/>
      <stop offset="0.6897" stop-color="#78005B"/>
    </linearGradient>
    <linearGradient id="paint4_linear_319:3072" x1="15.2473" y1="13.7127" x2="21.9705" y2="6.98939"
                    gradientUnits="userSpaceOnUse">
      <stop stop-color="#FF4630" stop-opacity="0"/>
      <stop offset="0.5722" stop-color="#B31F48" stop-opacity="0.5722"/>
      <stop offset="1" stop-color="#78005B"/>
    </linearGradient>
    <linearGradient id="paint5_linear_319:3072" x1="22.3581" y1="18.1851" x2="26.8364" y2="13.7067"
                    gradientUnits="userSpaceOnUse">
      <stop stop-color="#FF4630" stop-opacity="0"/>
      <stop offset="0.5722" stop-color="#B31F48" stop-opacity="0.5722"/>
      <stop offset="1" stop-color="#78005B"/>
    </linearGradient>
    <linearGradient id="paint6_linear_319:3072" x1="27.3708" y1="11.3348" x2="31.8639" y2="6.84173"
                    gradientUnits="userSpaceOnUse">
      <stop stop-color="#FF4630" stop-opacity="0"/>
      <stop offset="0.5722" stop-color="#B31F48" stop-opacity="0.5722"/>
      <stop offset="1" stop-color="#78005B"/>
    </linearGradient>
  </defs>
</svg>
