<svg width="24" height="24" viewBox="0 0 24 24" fill="none" xmlns="http://www.w3.org/2000/svg">
  <path fill-rule="evenodd" clip-rule="evenodd"
        d="M12 3.5C7.313 3.5 3.5 7.313 3.5 12C3.5 16.687 7.313 20.5 12 20.5C16.687 20.5 20.5 16.687 20.5 12C20.5 7.313 16.687 3.5 12 3.5ZM12 22C6.486 22 2 17.514 2 12C2 6.486 6.486 2 12 2C17.514 2 22 6.486 22 12C22 17.514 17.514 22 12 22Z"
        fill="#FCB400"/>
  <path fill-rule="evenodd" clip-rule="evenodd"
        d="M15.4311 15.6927C15.3001 15.6927 15.1681 15.6587 15.0471 15.5877L11.2771 13.3387C11.0511 13.2027 10.9111 12.9577 10.9111 12.6937V7.8457C10.9111 7.4317 11.2471 7.0957 11.6611 7.0957C12.0761 7.0957 12.4111 7.4317 12.4111 7.8457V12.2677L15.8161 14.2977C16.1711 14.5107 16.2881 14.9707 16.0761 15.3267C15.9351 15.5617 15.6861 15.6927 15.4311 15.6927Z"
        fill="#FCB400"/>
</svg>
