<svg width="32" height="32" viewBox="0 0 32 32" fill="none" xmlns="http://www.w3.org/2000/svg">
  <path
    d="M0 16C0 7.16344 7.16344 0 16 0C24.8366 0 32 7.16344 32 16C32 24.8366 24.8366 32 16 32C7.16344 32 0 24.8366 0 16Z"
    fill="white"/>
  <path
    d="M13.6101 19.7559L13.9715 18.3318C13.9715 18.2885 13.9503 18.2452 13.9079 18.2452H7.06363C7.02034 18.2452 7 18.2019 7 18.1587L10.5282 5.04329C10.5282 5.02208 10.5714 5 10.5918 5H14.3961C16.9677 5 18.5831 5.70122 19.5821 6.70024C20.0731 7.21308 20.4545 7.82057 20.7029 8.48565C20.9514 9.15074 21.0618 9.85947 21.0274 10.5686C21.0299 11.3635 20.9006 12.1534 20.6447 12.906C20.4353 13.5518 20.127 14.1613 19.731 14.7127C19.7098 14.756 19.731 14.8192 19.7743 14.8192H24.8334C24.8464 14.8178 24.8594 14.8206 24.8706 14.8273C24.8817 14.8339 24.8904 14.844 24.8953 14.8561C24.9002 14.8681 24.9011 14.8815 24.8977 14.894C24.8943 14.9066 24.887 14.9177 24.8767 14.9257L11.6315 27.8965C11.6213 27.9061 11.6082 27.9121 11.5943 27.9136C11.5803 27.9151 11.5663 27.912 11.5542 27.9049C11.5422 27.8977 11.5328 27.8867 11.5276 27.8738C11.5223 27.8608 11.5214 27.8464 11.525 27.8329L13.6101 19.7559Z"
    fill="url(#paint0_radial)"/>
  <defs>
    <radialGradient id="paint0_radial" cx="0" cy="0" r="1" gradientUnits="userSpaceOnUse"
                    gradientTransform="translate(13.4723 19.9628) scale(18.4439 18.4458)">
      <stop stop-color="#41BEF0"/>
      <stop offset="0.469" stop-color="#828CBE"/>
      <stop offset="0.54" stop-color="#8F80AE"/>
      <stop offset="0.794" stop-color="#BC5A79"/>
      <stop offset="0.917" stop-color="#CD4B64"/>
    </radialGradient>
  </defs>
</svg>
