<svg width="182" height="44" viewBox="0 0 182 44" fill="none" xmlns="http://www.w3.org/2000/svg">
  <path
    d="M53.688 18.1374L41.828 1.90246C40.944 0.691805 39.5796 0 38.0807 0C36.5818 0 35.2174 0.695007 34.3335 1.90246L33.0427 3.6672L31.752 1.90246C30.868 0.691805 29.5036 0 28.0047 0C26.5058 0 25.1414 0.695007 24.2575 1.90246L22.9828 3.64799L21.708 1.90246C20.8241 0.691805 19.4597 0 17.9608 0C16.4619 0 15.0975 0.695007 14.2135 1.90246L2.35355 18.1374C0.665678 20.4466 0.665678 23.5534 2.35355 25.8626L14.2135 42.0975C15.0975 43.3082 16.4619 44 17.9608 44C19.4597 44 20.8241 43.305 21.708 42.0975L28.0208 33.4564L29.3243 35.2404C29.3275 35.2468 29.3339 35.2532 29.3371 35.2596L34.3335 42.0975C35.2174 43.3082 36.5818 44 38.0807 44C39.5796 44 40.944 43.305 41.828 42.0975L53.688 25.8626C55.3758 23.5534 55.3758 20.4466 53.688 18.1374ZM26.1535 3.28607C26.5923 2.68715 27.2681 2.34445 28.0079 2.34445C28.7478 2.34445 29.4268 2.68715 29.8624 3.28607L31.5951 5.65614L28.024 10.5436L24.4368 5.63372L26.1535 3.28607ZM19.8184 40.7139C19.3796 41.3129 18.7038 41.6556 17.964 41.6556C17.2241 41.6556 16.5451 41.3129 16.1096 40.7139L4.24961 24.479C3.16707 22.9961 3.16707 21.0039 4.24961 19.5178L16.1096 3.28287C16.5483 2.68394 17.2241 2.34124 17.964 2.34124C18.7038 2.34124 19.3828 2.68394 19.8184 3.28287L21.5351 5.63052L12.4007 18.1342C10.7128 20.4434 10.7128 23.5502 12.4039 25.8626L13.0989 26.8042L19.2227 35.2371C20.001 36.3037 21.1572 36.9699 22.4479 37.1108L19.8184 40.7139ZM24.8276 33.86C24.3888 34.4557 23.713 34.8016 22.9699 34.8016C22.2301 34.8016 21.5511 34.4589 21.1187 33.8632L14.822 25.1932L14.8188 25.1964L14.2936 24.4822C13.211 22.9993 13.211 21.0071 14.2936 19.521L22.986 7.62265L26.5731 12.5325L22.4767 18.1406C20.7888 20.4499 20.7888 23.5566 22.4767 25.8658L26.5731 31.4739L24.8276 33.86ZM28.024 14.5151L31.6783 19.5178C32.7609 21.0007 32.7609 22.9929 31.6783 24.479L28.024 29.4817L24.3696 24.479C23.287 22.9961 23.287 21.0039 24.3696 19.5178L28.024 14.5151ZM33.5712 25.8626C35.2591 23.5534 35.2591 20.4466 33.5712 18.1374L29.4748 12.5293L33.0459 7.64187L41.7223 19.521C42.8049 21.0039 42.8049 22.9961 41.7159 24.4886L40.3259 26.4199L34.9228 33.86C34.484 34.4589 33.8082 34.8016 33.0684 34.8016C32.3349 34.8016 31.6655 34.4653 31.23 33.8792L29.4716 31.4739L33.5712 25.8626ZM51.7983 24.479L39.9384 40.7139C39.4996 41.3129 38.8238 41.6556 38.0839 41.6556C37.3441 41.6556 36.6651 41.3129 36.2295 40.7139L33.6 37.114C34.8875 36.9731 36.0438 36.3069 36.8252 35.2371L41.4661 28.8444L41.4725 28.8476L42.2348 27.7906L43.1219 26.5672L43.1155 26.564L43.6184 25.8626C45.3062 23.5534 45.3062 20.4466 43.6184 18.1374L34.5 5.65614L36.2327 3.28607C36.6715 2.68715 37.3473 2.34445 38.0871 2.34445C38.827 2.34445 39.5028 2.68715 39.9416 3.28607L51.8015 19.521C52.8809 21.0039 52.8808 22.9961 51.7983 24.479Z"
    fill="url(#paint0_linear_319:3073)"/>
  <path
    d="M22.9697 37.1427C22.7904 37.1427 22.611 37.1331 22.4381 37.1139L19.8918 40.6242L21.8135 41.979L26.4704 35.5862C25.5864 36.579 24.3181 37.1427 22.9697 37.1427Z"
    fill="url(#paint1_linear_319:3073)"/>
  <path
    d="M33.0617 37.1427C33.2411 37.1427 33.4204 37.1331 33.5934 37.1139L36.1396 40.6241L34.2179 41.9789L29.5867 35.5926C30.4674 36.5854 31.7133 37.1427 33.0617 37.1427Z"
    fill="url(#paint2_linear_319:3073)"/>
  <path d="M26.5531 31.4545L28.0328 33.4754L25.7812 36.4989L24.3015 34.5356L26.5531 31.4545Z"
        fill="url(#paint3_linear_319:3073)"/>
  <path d="M21.5336 5.63361L22.9877 7.63535L17.7159 14.8769L15.8743 13.4196L21.5336 5.63361Z"
        fill="url(#paint4_linear_319:3073)"/>
  <path d="M26.5716 12.5261L28.0129 14.5278L24.6532 19.1751L22.8083 17.7178L26.5716 12.5261Z"
        fill="url(#paint5_linear_319:3073)"/>
  <path d="M31.5948 5.65308L33.0425 7.64522L29.4778 12.5231L28.0237 10.5341L31.5948 5.65308Z"
        fill="url(#paint6_linear_319:3073)"/>
  <path
    d="M67.3171 24.0364H70.0844C70.139 24.501 70.3508 24.9246 70.7198 25.3072C71.1024 25.6762 71.6012 25.97 72.2161 26.1886C72.8311 26.3936 73.5212 26.4961 74.2864 26.4961C74.9833 26.4961 75.5573 26.4209 76.0082 26.2706C76.4592 26.1203 76.794 25.9085 77.0126 25.6352C77.2313 25.3619 77.3406 25.0339 77.3406 24.6513C77.3406 24.2823 77.2039 24.0022 76.9306 23.8109C76.6573 23.6059 76.2269 23.4419 75.6393 23.3189C75.0517 23.1823 74.2796 23.0456 73.323 22.909C72.5714 22.7996 71.8608 22.6493 71.1912 22.458C70.5216 22.253 69.9272 21.9934 69.4079 21.6791C68.9023 21.3648 68.4992 20.9822 68.1985 20.5312C67.9116 20.0666 67.7681 19.52 67.7681 18.8914C67.7681 18.1125 67.9867 17.4292 68.424 16.8416C68.875 16.254 69.5377 15.7962 70.4123 15.4682C71.2869 15.1403 72.3596 14.9763 73.6305 14.9763C75.5436 14.9763 77.0126 15.3862 78.0375 16.2062C79.0761 17.0124 79.5817 18.1261 79.5544 19.5473H76.8897C76.835 18.7411 76.4934 18.1603 75.8648 17.805C75.2498 17.4497 74.4709 17.2721 73.528 17.2721C72.6534 17.2721 71.9292 17.4019 71.3552 17.6615C70.7949 17.9212 70.5148 18.3653 70.5148 18.9939C70.5148 19.2398 70.5831 19.4585 70.7198 19.6498C70.8564 19.8275 71.0887 19.9846 71.4167 20.1213C71.7447 20.2579 72.1888 20.3877 72.7491 20.5107C73.3094 20.6337 74.0063 20.7567 74.8399 20.8797C75.6188 20.989 76.3225 21.1393 76.9511 21.3306C77.5934 21.5083 78.14 21.7474 78.591 22.0481C79.0556 22.335 79.4109 22.704 79.6569 23.1549C79.9028 23.6059 80.0258 24.1593 80.0258 24.8153C80.0258 25.6215 79.814 26.3253 79.3904 26.9266C78.9804 27.5142 78.3382 27.972 77.4636 28.2999C76.6027 28.6279 75.4821 28.7919 74.1019 28.7919C73.118 28.7919 72.2503 28.6894 71.4987 28.4844C70.7471 28.2658 70.098 27.9788 69.5514 27.6235C69.0048 27.2682 68.5607 26.8787 68.219 26.4551C67.8774 26.0315 67.6314 25.6079 67.4811 25.1842C67.3445 24.7606 67.2898 24.378 67.3171 24.0364Z"
    fill="#F7653B"/>
  <path d="M82.4925 15.2428H96.472V17.518H82.4925V15.2428ZM88.1294 17.2311H90.8556V28.5049H88.1294V17.2311Z"
        fill="#F7653B"/>
  <path
    d="M100.913 25.6147V23.3394H109.686V25.6147H100.913ZM97.613 28.5049L103.844 15.2428H106.796L113.089 28.5049H110.117L104.664 16.5546H105.976L100.565 28.5049H97.613Z"
    fill="#F7653B"/>
  <path
    d="M116.247 28.5049V15.2428H125.245C126.27 15.2428 127.159 15.3862 127.91 15.6732C128.675 15.9465 129.27 16.3838 129.693 16.9851C130.117 17.5727 130.329 18.3311 130.329 19.2603C130.329 19.8889 130.22 20.4219 130.001 20.8592C129.782 21.2965 129.475 21.6518 129.079 21.9251C128.696 22.1984 128.252 22.4102 127.746 22.5605C127.241 22.6972 126.701 22.786 126.127 22.827L125.84 22.663C126.796 22.6767 127.582 22.7587 128.197 22.909C128.812 23.0456 129.27 23.3053 129.571 23.6879C129.885 24.0569 130.042 24.6103 130.042 25.3482V28.5049H127.316V25.5327C127.316 25.0271 127.227 24.6376 127.049 24.3643C126.872 24.0774 126.55 23.8792 126.086 23.7699C125.635 23.6606 124.979 23.6059 124.118 23.6059H118.973V28.5049H116.247ZM118.973 21.4741H125.245C126.011 21.4741 126.591 21.2896 126.988 20.9207C127.398 20.5517 127.603 20.0529 127.603 19.4243C127.603 18.8231 127.398 18.3653 126.988 18.051C126.591 17.7367 126.011 17.5795 125.245 17.5795H118.973V21.4741Z"
    fill="#F7653B"/>
  <path d="M133.243 15.2428H147.223V17.518H133.243V15.2428ZM138.88 17.2311H141.606V28.5049H138.88V17.2311Z"
        fill="#F7653B"/>
  <path
    d="M153.161 22.9705V26.2296H163.389V28.5049H150.434V15.2428H163.368V17.518H153.161V20.8182H161.524V22.9705H153.161Z"
    fill="#F7653B"/>
  <path
    d="M167.418 28.5049V15.2428H176.417C177.441 15.2428 178.33 15.3862 179.081 15.6732C179.846 15.9465 180.441 16.3838 180.865 16.9851C181.288 17.5727 181.5 18.3311 181.5 19.2603C181.5 19.8889 181.391 20.4219 181.172 20.8592C180.953 21.2965 180.646 21.6518 180.25 21.9251C179.867 22.1984 179.423 22.4102 178.917 22.5605C178.412 22.6972 177.872 22.786 177.298 22.827L177.011 22.663C177.968 22.6767 178.753 22.7587 179.368 22.909C179.983 23.0456 180.441 23.3053 180.742 23.6879C181.056 24.0569 181.213 24.6103 181.213 25.3482V28.5049H178.487V25.5327C178.487 25.0271 178.398 24.6376 178.22 24.3643C178.043 24.0774 177.722 23.8792 177.257 23.7699C176.806 23.6606 176.15 23.6059 175.289 23.6059H170.144V28.5049H167.418ZM170.144 21.4741H176.417C177.182 21.4741 177.763 21.2896 178.159 20.9207C178.569 20.5517 178.774 20.0529 178.774 19.4243C178.774 18.8231 178.569 18.3653 178.159 18.051C177.763 17.7367 177.182 17.5795 176.417 17.5795H170.144V21.4741Z"
    fill="#F7653B"/>
  <defs>
    <linearGradient id="paint0_linear_319:3073" x1="11.0306" y1="38.9921" x2="45.0149" y2="5.00786"
                    gradientUnits="userSpaceOnUse">
      <stop stop-color="#FF8506"/>
      <stop offset="0.5805" stop-color="#FD3947"/>
      <stop offset="1" stop-color="#FB0078"/>
    </linearGradient>
    <linearGradient id="paint1_linear_319:3073" x1="24.9925" y1="35.5376" x2="21.0226" y2="41.1558"
                    gradientUnits="userSpaceOnUse">
      <stop stop-color="#78005B"/>
      <stop offset="0.3483" stop-color="#7A025A" stop-opacity="0.6517"/>
      <stop offset="0.51" stop-color="#820955" stop-opacity="0.49"/>
      <stop offset="0.6332" stop-color="#8E154E" stop-opacity="0.3668"/>
      <stop offset="0.7369" stop-color="#A12643" stop-opacity="0.2631"/>
      <stop offset="0.8283" stop-color="#B83C36" stop-opacity="0.1717"/>
      <stop offset="0.9111" stop-color="#D65725" stop-opacity="0.0889"/>
      <stop offset="0.9857" stop-color="#F87711" stop-opacity="0.0143"/>
      <stop offset="1" stop-color="#FF7E0D" stop-opacity="0"/>
    </linearGradient>
    <linearGradient id="paint2_linear_319:3073" x1="34.6923" y1="40.7376" x2="30.9559" y2="35.3633"
                    gradientUnits="userSpaceOnUse">
      <stop stop-color="#FF7E0D" stop-opacity="0"/>
      <stop offset="0.00928743" stop-color="#F97811" stop-opacity="0.0127"/>
      <stop offset="0.0651" stop-color="#D65825" stop-opacity="0.0888"/>
      <stop offset="0.1269" stop-color="#B93D36" stop-opacity="0.1729"/>
      <stop offset="0.1949" stop-color="#A12643" stop-opacity="0.2657"/>
      <stop offset="0.272" stop-color="#8F154E" stop-opacity="0.3707"/>
      <stop offset="0.3632" stop-color="#820955" stop-opacity="0.495"/>
      <stop offset="0.4822" stop-color="#7A025A" stop-opacity="0.6573"/>
      <stop offset="0.7336" stop-color="#78005B"/>
    </linearGradient>
    <linearGradient id="paint3_linear_319:3073" x1="25.1216" y1="35.5088" x2="28.1431" y2="31.1631"
                    gradientUnits="userSpaceOnUse">
      <stop stop-color="#FF7E0D" stop-opacity="0"/>
      <stop offset="0.0133" stop-color="#F97910" stop-opacity="0.0192"/>
      <stop offset="0.1144" stop-color="#D25427" stop-opacity="0.1659"/>
      <stop offset="0.219" stop-color="#B1363A" stop-opacity="0.3175"/>
      <stop offset="0.3263" stop-color="#981E48" stop-opacity="0.4731"/>
      <stop offset="0.4375" stop-color="#860D53" stop-opacity="0.6344"/>
      <stop offset="0.5551" stop-color="#7B0359" stop-opacity="0.8048"/>
      <stop offset="0.6897" stop-color="#78005B"/>
    </linearGradient>
    <linearGradient id="paint4_linear_319:3073" x1="16.166" y1="13.7127" x2="22.8892" y2="6.98939"
                    gradientUnits="userSpaceOnUse">
      <stop stop-color="#FF4630" stop-opacity="0"/>
      <stop offset="0.5722" stop-color="#B31F48" stop-opacity="0.5722"/>
      <stop offset="1" stop-color="#78005B"/>
    </linearGradient>
    <linearGradient id="paint5_linear_319:3073" x1="23.2768" y1="18.1851" x2="27.7551" y2="13.7067"
                    gradientUnits="userSpaceOnUse">
      <stop stop-color="#FF4630" stop-opacity="0"/>
      <stop offset="0.5722" stop-color="#B31F48" stop-opacity="0.5722"/>
      <stop offset="1" stop-color="#78005B"/>
    </linearGradient>
    <linearGradient id="paint6_linear_319:3073" x1="28.2895" y1="11.3348" x2="32.7826" y2="6.84173"
                    gradientUnits="userSpaceOnUse">
      <stop stop-color="#FF4630" stop-opacity="0"/>
      <stop offset="0.5722" stop-color="#B31F48" stop-opacity="0.5722"/>
      <stop offset="1" stop-color="#78005B"/>
    </linearGradient>
  </defs>
</svg>
