<svg width="54" height="44" viewBox="0 0 54 44" fill="none" xmlns="http://www.w3.org/2000/svg">
  <path
    d="M52.5938 18.1363L40.7352 1.90385C39.8517 0.690611 38.4891 0 36.9897 0C35.4902 0 34.1277 0.690611 33.2442 1.90385L31.9501 3.67081L30.6622 1.90385C29.7787 0.690611 28.4161 0 26.9167 0C25.4173 0 24.0547 0.690611 23.1712 1.90385L21.8958 3.64593L20.6203 1.90385C19.7368 0.690611 18.3681 0 16.8749 0C15.3816 0 14.0129 0.690611 13.1294 1.90385L1.26456 18.1363C-0.421521 20.4446 -0.421521 23.5492 1.26456 25.8637L13.1294 42.0962C14.0129 43.3032 15.3754 44 16.8749 44C18.3743 44 19.7368 43.3094 20.6203 42.0962L26.9292 33.4542L28.2295 35.2398C28.2357 35.246 28.2419 35.2523 28.2419 35.2585L33.238 42.0962C34.1215 43.3032 35.484 44 36.9835 44C38.4829 44 39.8454 43.3094 40.7289 42.0962L52.5875 25.8637C54.2861 23.5492 54.2861 20.4446 52.5938 18.1363ZM25.0626 3.28507C25.4982 2.68778 26.1763 2.34559 26.9167 2.34559C27.6571 2.34559 28.3353 2.68778 28.7708 3.28507L30.5004 5.65554L26.9292 10.5396L23.3454 5.63066L25.0626 3.28507ZM18.7289 40.7087C18.2934 41.306 17.6152 41.6482 16.8749 41.6482C16.1345 41.6482 15.4563 41.306 15.0208 40.7087L3.16219 24.4762C2.07961 22.9955 2.07961 20.9983 3.16219 19.5175L15.0208 3.28507C15.4563 2.68778 16.1345 2.34559 16.8749 2.34559C17.6152 2.34559 18.2934 2.68778 18.7289 3.28507L20.4461 5.63688L11.3126 18.1363C9.62656 20.4446 9.62656 23.5492 11.3189 25.8637L12.0157 26.8032L18.1379 35.2336C18.9156 36.3037 20.0728 36.9632 21.3607 37.1063L18.7289 40.7087ZM23.7374 33.8586C23.2957 34.4559 22.6237 34.7981 21.8833 34.7981C21.143 34.7981 20.4648 34.4559 20.0293 33.8586L13.7329 25.1855H13.7267L13.1978 24.47C12.1152 22.9893 12.1152 20.9921 13.1978 19.5113L21.8896 7.61538L25.4733 12.5243L21.3794 18.1301C19.6933 20.4383 19.6933 23.543 21.3794 25.8575L25.4733 31.4632L23.7374 33.8586ZM26.9292 14.5153L30.5875 19.5175C31.6701 20.9983 31.6701 22.9955 30.5875 24.4762L26.9292 29.4785L23.2708 24.4762C22.1882 22.9955 22.1882 20.9983 23.2708 19.5175L26.9292 14.5153ZM32.4789 25.8575C34.165 23.5492 34.165 20.4446 32.4789 18.1301L28.385 12.5243L31.9563 7.64027L40.6294 19.5175C41.712 20.9983 41.712 22.9955 40.6232 24.4825L39.2357 26.4112L33.8353 33.8524C33.3997 34.4497 32.7216 34.7919 31.9812 34.7919C31.247 34.7919 30.5813 34.4559 30.1396 33.871L28.3788 31.4632L32.4789 25.8575ZM50.7023 24.4762L38.8438 40.7087C38.4082 41.306 37.7301 41.6482 36.9897 41.6482C36.2493 41.6482 35.5711 41.306 35.1356 40.7087L32.5038 37.1063C33.7917 36.9632 34.949 36.2975 35.7267 35.2274L40.3681 28.8377L40.3743 28.8439L41.1333 27.7862L42.023 26.5605L42.0168 26.5543L42.5208 25.8512C44.2069 23.543 44.2069 20.4383 42.5208 18.1239L33.406 5.65554L35.1356 3.28507C35.5711 2.68778 36.2493 2.34559 36.9897 2.34559C37.7301 2.34559 38.4082 2.68778 38.8438 3.28507L50.7023 19.5175C51.7849 21.0045 51.7849 22.9955 50.7023 24.4762Z"
    fill="url(#paint0_linear_3740:1625)"/>
  <path opacity="0.4"
        d="M21.8774 37.1375C21.6969 37.1375 21.5227 37.125 21.3423 37.1064L18.7976 40.6154L20.7201 41.9717L25.374 35.582C24.4967 36.5775 23.2275 37.1375 21.8774 37.1375Z"
        fill="url(#paint1_linear_3740:1625)"/>
  <path opacity="0.4"
        d="M31.9688 37.1371C32.1492 37.1371 32.3234 37.1247 32.5039 37.106L35.0485 40.615L33.126 41.9714L28.4971 35.5879C29.3743 36.5834 30.6249 37.1371 31.9688 37.1371Z"
        fill="url(#paint2_linear_3740:1625)"/>
  <path opacity="0.4" d="M25.461 31.4507L26.9418 33.4727L24.6895 36.4965L23.2087 34.5304L25.461 31.4507Z"
        fill="url(#paint3_linear_3740:1625)"/>
  <path opacity="0.6" d="M20.4395 5.63037L21.9016 7.63376L16.6256 14.8758L14.7839 13.42L20.4395 5.63037Z"
        fill="url(#paint4_linear_3740:1625)"/>
  <path opacity="0.6" d="M25.4853 12.5244L26.9225 14.5278L23.5628 19.1754L21.7212 17.7133L25.4853 12.5244Z"
        fill="url(#paint5_linear_3740:1625)"/>
  <path opacity="0.6" d="M30.5008 5.65527L31.9505 7.64622L28.3855 12.5241L26.9358 10.5331L30.5008 5.65527Z"
        fill="url(#paint6_linear_3740:1625)"/>
  <defs>
    <linearGradient id="paint0_linear_3740:1625" x1="9.941" y1="38.9885" x2="43.9217" y2="5.0078"
                    gradientUnits="userSpaceOnUse">
      <stop stop-color="#FF8506"/>
      <stop offset="0.5805" stop-color="#FD3947"/>
      <stop offset="1" stop-color="#FB0078"/>
    </linearGradient>
    <linearGradient id="paint1_linear_3740:1625" x1="23.9018" y1="35.5344" x2="19.9324" y2="41.152"
                    gradientUnits="userSpaceOnUse">
      <stop stop-color="#78005B"/>
      <stop offset="0.3483" stop-color="#7A025A" stop-opacity="0.6517"/>
      <stop offset="0.51" stop-color="#820955" stop-opacity="0.49"/>
      <stop offset="0.6332" stop-color="#8E154E" stop-opacity="0.3668"/>
      <stop offset="0.7369" stop-color="#A12643" stop-opacity="0.2631"/>
      <stop offset="0.8283" stop-color="#B83C36" stop-opacity="0.1717"/>
      <stop offset="0.9111" stop-color="#D65725" stop-opacity="0.0889"/>
      <stop offset="0.9857" stop-color="#F87711" stop-opacity="0.0143"/>
      <stop offset="1" stop-color="#FF7E0D" stop-opacity="0"/>
    </linearGradient>
    <linearGradient id="paint2_linear_3740:1625" x1="33.6001" y1="40.7336" x2="29.864" y2="35.3598"
                    gradientUnits="userSpaceOnUse">
      <stop stop-color="#FF7E0D" stop-opacity="0"/>
      <stop offset="0.00928743" stop-color="#F97811" stop-opacity="0.0127"/>
      <stop offset="0.0651" stop-color="#D65825" stop-opacity="0.0888"/>
      <stop offset="0.1269" stop-color="#B93D36" stop-opacity="0.1729"/>
      <stop offset="0.1949" stop-color="#A12643" stop-opacity="0.2657"/>
      <stop offset="0.272" stop-color="#8F154E" stop-opacity="0.3707"/>
      <stop offset="0.3632" stop-color="#820955" stop-opacity="0.495"/>
      <stop offset="0.4822" stop-color="#7A025A" stop-opacity="0.6573"/>
      <stop offset="0.7336" stop-color="#78005B"/>
    </linearGradient>
    <linearGradient id="paint3_linear_3740:1625" x1="24.0315" y1="35.5056" x2="27.0526" y2="31.1603"
                    gradientUnits="userSpaceOnUse">
      <stop stop-color="#FF7E0D" stop-opacity="0"/>
      <stop offset="0.0133" stop-color="#F97910" stop-opacity="0.0192"/>
      <stop offset="0.1144" stop-color="#D25427" stop-opacity="0.1659"/>
      <stop offset="0.219" stop-color="#B1363A" stop-opacity="0.3175"/>
      <stop offset="0.3263" stop-color="#981E48" stop-opacity="0.4731"/>
      <stop offset="0.4375" stop-color="#860D53" stop-opacity="0.6344"/>
      <stop offset="0.5551" stop-color="#7B0359" stop-opacity="0.8048"/>
      <stop offset="0.6897" stop-color="#78005B"/>
    </linearGradient>
    <linearGradient id="paint4_linear_3740:1625" x1="15.0769" y1="13.7115" x2="21.7994" y2="6.98894"
                    gradientUnits="userSpaceOnUse">
      <stop stop-color="#FF4630" stop-opacity="0"/>
      <stop offset="0.5722" stop-color="#B31F48" stop-opacity="0.5722"/>
      <stop offset="1" stop-color="#78005B"/>
    </linearGradient>
    <linearGradient id="paint5_linear_3740:1625" x1="22.1869" y1="18.1838" x2="26.6648" y2="13.706"
                    gradientUnits="userSpaceOnUse">
      <stop stop-color="#FF4630" stop-opacity="0"/>
      <stop offset="0.5722" stop-color="#B31F48" stop-opacity="0.5722"/>
      <stop offset="1" stop-color="#78005B"/>
    </linearGradient>
    <linearGradient id="paint6_linear_3740:1625" x1="27.1988" y1="11.3337" x2="31.6914" y2="6.84107"
                    gradientUnits="userSpaceOnUse">
      <stop stop-color="#FF4630" stop-opacity="0"/>
      <stop offset="0.5722" stop-color="#B31F48" stop-opacity="0.5722"/>
      <stop offset="1" stop-color="#78005B"/>
    </linearGradient>
  </defs>
</svg>
