<svg width="64" height="64" viewBox="0 0 64 64" fill="none" xmlns="http://www.w3.org/2000/svg">
  <g clip-path="url(#clip0)">
    <circle cx="32" cy="32" r="32" fill="#2A2827"/>
    <path
      d="M53.7002 28.7606L43.7595 15.8474C43.0196 14.8849 41.8745 14.3334 40.6189 14.3334C39.3634 14.3334 38.2191 14.8849 37.4784 15.8474L36.398 17.2519L35.3167 15.8474C34.576 14.8849 33.4317 14.3334 32.1761 14.3334C30.9206 14.3334 29.7763 14.8849 29.0356 15.8474L27.9674 17.2348L26.8993 15.8466C26.1585 14.8849 25.0135 14.3334 23.7579 14.3334C22.5023 14.3334 21.3581 14.8849 20.6173 15.8474L10.6775 28.7606C9.26311 30.5986 9.26311 33.0674 10.6775 34.9053L20.6173 47.8193C21.3581 48.7811 22.5023 49.3334 23.7579 49.3334C25.0135 49.3334 26.1577 48.7818 26.8985 47.8193L32.1884 40.9467L33.2803 42.3652H33.2795C33.2836 42.3699 33.2877 42.3745 33.2918 42.38L37.4784 47.8193C38.2191 48.7811 39.3634 49.3334 40.6189 49.3334C41.8745 49.3334 43.0188 48.7818 43.7595 47.8193L53.6994 34.9061C55.1145 33.0681 55.1145 30.5986 53.7002 28.7606ZM30.6218 16.9466C30.9885 16.4704 31.5549 16.1978 32.1761 16.1978C32.7974 16.1978 33.3638 16.4712 33.7305 16.9466L35.1817 18.832L32.1892 22.72L29.1837 18.8157L30.6218 16.9466ZM25.3122 46.7193C24.9455 47.1955 24.3791 47.4682 23.7579 47.4682C23.1366 47.4682 22.5702 47.1948 22.2036 46.7193L12.2637 33.8054C11.3552 32.6254 11.3552 31.0398 12.2637 29.8598L22.2036 16.9466C22.5702 16.4704 23.1366 16.1978 23.7579 16.1978C24.3791 16.1978 24.9455 16.4712 25.3122 16.9466L26.7503 18.8149L19.0949 28.7606C17.6805 30.5986 17.6805 33.0674 19.0982 34.9092L19.681 35.6589L19.6818 35.6581L24.8129 42.3652C25.4661 43.2143 26.4352 43.7433 27.5164 43.856L25.3122 46.7193ZM29.5103 41.266L29.5087 41.2652C29.142 41.7414 28.5756 42.0141 27.9543 42.0141C27.3331 42.0141 26.7667 41.7407 26.4016 41.2668L21.1256 34.3701L21.1231 34.3717L20.682 33.8046C19.7734 32.6246 19.7734 31.0391 20.682 29.8591L27.9674 20.3957L30.9729 24.3001L27.5394 28.7606C26.125 30.5986 26.125 33.0674 27.5394 34.9053L30.9729 39.3659L29.5103 41.266ZM32.1884 25.8802L35.2521 29.8606C36.1606 31.0406 36.1606 32.6261 35.2521 33.8061L32.1884 37.7866L29.1248 33.8061C28.2162 32.6261 28.2162 31.0406 29.1248 29.8606L32.1884 25.8802ZM36.8391 34.9053C38.2535 33.0674 38.2535 30.5986 36.8391 28.7606L33.4055 24.3001L36.398 20.4121L43.6711 29.8606C44.5797 31.0406 44.5797 32.6261 43.667 33.8116L42.5023 35.3481L37.9752 41.2652C37.6085 41.7414 37.0421 42.0141 36.4209 42.0141C35.8062 42.0141 35.2455 41.7469 34.8788 41.28L33.4055 39.3659L36.8391 34.9053ZM52.1139 33.8061L42.1733 46.7193C41.8066 47.1955 41.2402 47.4682 40.6189 47.4682C39.9977 47.4682 39.4313 47.1948 39.0646 46.7193L36.8604 43.8552C37.9408 43.7418 38.9083 43.2127 39.5623 42.3629L43.4518 37.2786L43.4559 37.2817L44.0935 36.4396L44.8383 35.4662L44.8334 35.4631L45.2557 34.9053C46.6701 33.0674 46.6701 30.5986 45.2557 28.7606L37.6142 18.832L39.0654 16.9466C39.4321 16.4704 39.9985 16.1978 40.6198 16.1978C41.241 16.1978 41.8074 16.4712 42.1741 16.9466L52.1139 29.8606C53.0216 31.0406 53.0216 32.6261 52.1139 33.8061Z"
      fill="url(#paint0_linear)"/>
    <path opacity="0.6"
          d="M27.9548 43.8792C27.8041 43.8792 27.6552 43.8706 27.5087 43.8551L25.374 46.647L26.9832 47.7253L30.8858 42.6401C30.1491 43.4294 29.0835 43.8792 27.9548 43.8792Z"
          fill="url(#paint1_linear)"/>
    <path opacity="0.6"
          d="M36.4114 43.8792C36.562 43.8792 36.711 43.8707 36.8575 43.8552L38.9921 46.6471L37.383 47.7253L33.5 42.6456C34.2366 43.4349 35.2827 43.8792 36.4114 43.8792Z"
          fill="url(#paint2_linear)"/>
    <path opacity="0.6" d="M30.9579 39.3542L32.1996 40.9623L30.3121 43.365L29.0713 41.8036L30.9579 39.3542Z"
          fill="url(#paint3_linear)"/>
    <path d="M26.751 18.8141L27.9722 20.4074L23.5531 26.1668L22.0078 25.0085L26.751 18.8141Z"
          fill="url(#paint4_linear)"/>
    <path d="M30.9748 24.2961L32.1829 25.8886L29.3656 29.5848L27.8203 28.4265L30.9748 24.2961Z"
          fill="url(#paint5_linear)"/>
    <path d="M35.1822 18.8296L36.3977 20.4143L33.4093 24.2954L32.1914 22.713L35.1822 18.8296Z"
          fill="url(#paint6_linear)"/>
  </g>
  <defs>
    <linearGradient id="paint0_linear" x1="16.8035" y1="45.058" x2="37.2254" y2="16.0675"
                    gradientUnits="userSpaceOnUse">
      <stop stop-color="#FF8506"/>
      <stop offset="0.5805" stop-color="#FD3947"/>
      <stop offset="1" stop-color="#FB0078"/>
    </linearGradient>
    <linearGradient id="paint1_linear" x1="29.6498" y1="42.6013" x2="26.5503" y2="47.2229"
                    gradientUnits="userSpaceOnUse">
      <stop stop-color="#78005B"/>
      <stop offset="0.3483" stop-color="#7A025A" stop-opacity="0.6517"/>
      <stop offset="0.51" stop-color="#820955" stop-opacity="0.49"/>
      <stop offset="0.6332" stop-color="#8E154E" stop-opacity="0.3668"/>
      <stop offset="0.7369" stop-color="#A12643" stop-opacity="0.2631"/>
      <stop offset="0.8283" stop-color="#B83C36" stop-opacity="0.1717"/>
      <stop offset="0.9111" stop-color="#D65725" stop-opacity="0.0889"/>
      <stop offset="0.9857" stop-color="#F87711" stop-opacity="0.0143"/>
      <stop offset="1" stop-color="#FF7E0D" stop-opacity="0"/>
    </linearGradient>
    <linearGradient id="paint2_linear" x1="37.7782" y1="46.7376" x2="34.8631" y2="42.3199"
                    gradientUnits="userSpaceOnUse">
      <stop stop-color="#FF7E0D" stop-opacity="0"/>
      <stop offset="0.00928743" stop-color="#F97811" stop-opacity="0.0127"/>
      <stop offset="0.0651" stop-color="#D65825" stop-opacity="0.0888"/>
      <stop offset="0.1269" stop-color="#B93D36" stop-opacity="0.1729"/>
      <stop offset="0.1949" stop-color="#A12643" stop-opacity="0.2657"/>
      <stop offset="0.272" stop-color="#8F154E" stop-opacity="0.3707"/>
      <stop offset="0.3632" stop-color="#820955" stop-opacity="0.495"/>
      <stop offset="0.4822" stop-color="#7A025A" stop-opacity="0.6573"/>
      <stop offset="0.7336" stop-color="#78005B"/>
    </linearGradient>
    <linearGradient id="paint3_linear" x1="29.7594" y1="42.5786" x2="32.1166" y2="39.0063"
                    gradientUnits="userSpaceOnUse">
      <stop stop-color="#FF7E0D" stop-opacity="0"/>
      <stop offset="0.0133" stop-color="#F97910" stop-opacity="0.0192"/>
      <stop offset="0.1144" stop-color="#D25427" stop-opacity="0.1659"/>
      <stop offset="0.219" stop-color="#B1363A" stop-opacity="0.3175"/>
      <stop offset="0.3263" stop-color="#981E48" stop-opacity="0.4731"/>
      <stop offset="0.4375" stop-color="#860D53" stop-opacity="0.6344"/>
      <stop offset="0.5551" stop-color="#7B0359" stop-opacity="0.8048"/>
      <stop offset="0.6897" stop-color="#78005B"/>
    </linearGradient>
    <linearGradient id="paint4_linear" x1="22.2536" y1="25.2412" x2="27.5942" y2="19.6142"
                    gradientUnits="userSpaceOnUse">
      <stop stop-color="#FF4630" stop-opacity="0"/>
      <stop offset="0.5722" stop-color="#B31F48" stop-opacity="0.5722"/>
      <stop offset="1" stop-color="#78005B"/>
    </linearGradient>
    <linearGradient id="paint5_linear" x1="28.2126" y1="28.7987" x2="31.77" y2="25.0505" gradientUnits="userSpaceOnUse">
      <stop stop-color="#FF4630" stop-opacity="0"/>
      <stop offset="0.5722" stop-color="#B31F48" stop-opacity="0.5722"/>
      <stop offset="1" stop-color="#78005B"/>
    </linearGradient>
    <linearGradient id="paint6_linear" x1="32.4131" y1="23.3496" x2="35.9822" y2="19.5891"
                    gradientUnits="userSpaceOnUse">
      <stop stop-color="#FF4630" stop-opacity="0"/>
      <stop offset="0.5722" stop-color="#B31F48" stop-opacity="0.5722"/>
      <stop offset="1" stop-color="#78005B"/>
    </linearGradient>
    <clipPath id="clip0">
      <rect width="64" height="64" fill="white"/>
    </clipPath>
  </defs>
</svg>
