<svg width="33" height="32" viewBox="0 0 33 32" fill="none" xmlns="http://www.w3.org/2000/svg">
  <circle cx="16.9917" cy="16" r="16" fill="white" fill-opacity="0.88"/>
  <path
    d="M8.62424 8.87147C8.68797 8.87147 8.75756 8.87147 8.82716 8.87147C10.3424 8.87147 11.8573 8.87398 13.3725 8.86769C13.5306 8.86685 13.609 8.91428 13.6748 9.05991C14.8958 11.7536 16.1221 14.4443 17.3477 17.1358C17.3745 17.1941 17.4047 17.2508 17.4554 17.3519C18.5963 14.5039 19.7229 11.691 20.8503 8.87692C22.4322 8.87692 24.0049 8.87692 25.5873 8.87692C25.6317 9.03263 25.6137 9.15434 25.485 9.27354C25.0716 9.65631 24.6716 10.0538 24.2607 10.4399C24.1232 10.5696 24.0691 10.7156 24.0695 10.9049C24.0733 14.1135 24.0729 17.3226 24.0695 20.5312C24.0695 20.7129 24.1232 20.8539 24.254 20.9794C24.646 21.3567 25.0276 21.7454 25.4234 22.1189C25.5496 22.2381 25.6133 22.3577 25.5558 22.5407C23.324 22.5407 21.0818 22.5407 18.8416 22.5407C18.7925 22.367 18.842 22.2448 18.9711 22.1248C19.3741 21.7496 19.7615 21.358 20.161 20.979C20.2918 20.8548 20.3547 20.7196 20.3547 20.5358C20.3514 18.0012 20.3526 15.4666 20.3522 12.9321C20.3522 12.8884 20.3451 12.8444 20.3367 12.7482C20.2927 12.841 20.2667 12.8884 20.247 12.938C19.0189 16.0563 17.7917 19.1747 16.5624 22.2927C16.5309 22.3724 16.4878 22.4975 16.4324 22.5084C16.2831 22.5369 16.1226 22.5277 15.9708 22.5042C15.9276 22.4975 15.8953 22.393 15.866 22.3296C14.9763 20.3885 14.0878 18.4465 13.1989 16.505C12.6547 15.3164 12.1109 14.1278 11.5667 12.9392C11.5403 12.8813 11.5118 12.8238 11.451 12.7663C11.4468 12.8171 11.4393 12.8683 11.4393 12.9191C11.4376 15.0843 11.4363 17.2491 11.4351 19.4144C11.4351 19.6452 11.5202 19.8408 11.6661 20.017C12.2321 20.7007 12.7931 21.3882 13.3621 22.0694C13.4694 22.1978 13.5373 22.3229 13.4774 22.5059C11.7948 22.5059 10.1022 22.5059 8.39992 22.5059C8.35464 22.3628 8.38021 22.2431 8.48294 22.1202C9.05986 21.4289 9.62882 20.731 10.2028 20.0372C10.3533 19.8555 10.4355 19.6553 10.4351 19.4156C10.4313 16.842 10.4284 14.2688 10.4305 11.6952C10.4305 11.461 10.3592 11.2717 10.2091 11.0938C9.71226 10.5045 9.22716 9.90519 8.7299 9.31635C8.61963 9.18498 8.57267 9.05572 8.62424 8.87147Z"
    fill="#1F1E1E"/>
</svg>
