<svg width="24" height="24" viewBox="0 0 24 24" fill="none" xmlns="http://www.w3.org/2000/svg">
  <path
    d="M12 24C18.6274 24 24 18.6274 24 12C24 5.37258 18.6274 0 12 0C5.37258 0 0 5.37258 0 12C0 18.6274 5.37258 24 12 24Z"
    fill="white"/>
  <path fill-rule="evenodd" clip-rule="evenodd"
        d="M6.65391 6.32812C6.39609 4.9875 7.42734 3.75 8.76797 3.75C9.95391 3.75 10.9336 4.72969 10.9336 5.91562V8.59687C11.243 8.59687 11.5523 8.54531 11.8617 8.54531C12.1711 8.54531 12.4289 8.54531 12.7383 8.59687V5.91562C12.7383 4.72969 13.718 3.75 14.9039 3.75C16.2445 3.75 17.2758 4.9875 17.0695 6.32812L16.5023 9.47344C18.5133 10.35 20.0602 11.8969 20.0602 13.8047V14.9906C20.0602 16.5891 19.0289 17.9297 17.5336 18.8063C16.0383 19.7344 14.0789 20.25 11.8617 20.25C9.64453 20.25 7.68516 19.7344 6.18984 18.8063C4.74609 17.9297 3.71484 16.5891 3.71484 14.9906V13.8047C3.71484 11.8969 5.21016 10.35 7.22109 9.47344L6.65391 6.32812ZM15.7289 9.88594L16.3992 6.17344C16.5539 5.24531 15.8836 4.36875 14.9039 4.36875C14.0789 4.36875 13.4086 5.03906 13.4086 5.86406V9.26719C13.2023 9.21562 12.9445 9.21563 12.7383 9.21563C12.4289 9.21563 12.1711 9.16406 11.8617 9.16406C11.5523 9.16406 11.243 9.16406 10.9336 9.21563C10.7273 9.21563 10.4695 9.26719 10.2633 9.26719V5.91562C10.2633 5.09062 9.59297 4.42031 8.76797 4.42031C7.83984 4.42031 7.11797 5.29688 7.32422 6.225L7.99453 9.9375C5.82891 10.7625 4.38516 12.2063 4.38516 13.8562V15.0422C4.38516 17.5687 7.73672 19.6312 11.8617 19.6312C15.9867 19.6312 19.3383 17.5687 19.3383 15.0422V13.8562C19.3898 12.1547 17.9461 10.7109 15.7289 9.88594Z"
        fill="#633001"/>
  <path
    d="M19.3898 14.9906C19.3898 17.5172 16.0382 19.5797 11.9132 19.5797C7.78821 19.5797 4.43665 17.5172 4.43665 14.9906V13.8047H19.4413V14.9906H19.3898Z"
    fill="#FEDC90"/>
  <path fill-rule="evenodd" clip-rule="evenodd"
        d="M7.32415 6.2251C7.1179 5.29697 7.83977 4.42041 8.7679 4.42041C9.5929 4.42041 10.2632 5.09072 10.2632 5.91572V9.31885C10.7788 9.26729 11.2945 9.21572 11.8616 9.21572C12.3773 9.21572 12.8929 9.26729 13.4085 9.31885V5.91572C13.4085 5.09072 14.0788 4.42041 14.9038 4.42041C15.832 4.42041 16.5538 5.29697 16.3991 6.2251L15.7288 9.9376C17.8945 10.7626 19.3898 12.2063 19.3898 13.8563C19.3898 16.3829 16.0382 18.4454 11.9132 18.4454C7.78821 18.4454 4.43665 16.3829 4.43665 13.8563C4.43665 12.2063 5.8804 10.7626 8.04602 9.9376L7.32415 6.2251Z"
        fill="#D1884F"/>
  <path
    d="M9.79929 13.4953C9.79929 14.1656 9.43835 14.7328 8.97429 14.7328C8.51023 14.7328 8.14929 14.1656 8.14929 13.4953C8.14929 12.825 8.51023 12.2578 8.97429 12.2578C9.43835 12.2578 9.79929 12.825 9.79929 13.4953Z"
    fill="#633001"/>
  <path
    d="M15.5228 13.4953C15.5228 14.1656 15.1619 14.7328 14.6978 14.7328C14.2337 14.7328 13.8728 14.1656 13.8728 13.4953C13.8728 12.825 14.2337 12.2578 14.6978 12.2578C15.1619 12.2578 15.5228 12.825 15.5228 13.4953Z"
    fill="#633001"/>
</svg>
