<svg width="32" height="32" viewBox="0 0 32 32" fill="none" xmlns="http://www.w3.org/2000/svg">
  <circle cx="16" cy="16" r="16" fill="white"/>
  <g clip-path="url(#clip0)">
    <path d="M9.58532 7.10864L26.6353 18.7503L22.4187 24.9836L5.36865 13.2503L9.58532 7.10864Z"
          fill="url(#paint0_linear)"/>
    <path
      d="M26.6344 18.7494C25.1677 20.8577 20.2177 20.0327 15.5427 16.7327C10.7761 13.5244 8.2094 9.21604 9.5844 7.1077C11.0511 4.99937 16.0011 5.82437 20.6761 9.12437C25.4427 12.241 28.0094 16.641 26.6344 18.7494Z"
      fill="url(#paint1_linear)"/>
    <path
      d="M22.4178 24.8917C20.9512 27 16.0012 26.175 11.3262 22.875C6.65118 19.575 3.99284 15.3584 5.45951 13.1584C6.92618 11.05 11.8762 11.875 16.5512 15.175C21.2262 18.475 23.7928 22.7834 22.4178 24.8917Z"
      fill="url(#paint2_linear)"/>
    <path
      d="M26.6333 18.7496L22.4166 24.9829C20.95 27.0913 16 26.1746 11.325 22.9663C10.4083 22.3246 9.5833 21.6829 8.7583 20.9496C9.39997 20.8579 10.225 20.4913 11.05 19.5746C12.5166 18.0163 13.25 17.6496 13.8916 17.7413C14.5333 17.7413 15.2666 18.3829 16.4583 19.9413C17.65 21.4996 19.3 21.9579 20.3083 21.1329C20.4 21.0413 20.4916 21.0413 20.5833 20.9496C21.4083 20.3079 21.6833 20.0329 23.2416 17.0996C23.6083 16.3663 24.8916 15.1746 26.6333 15.7246C27.0916 16.9163 27.0916 17.9246 26.6333 18.7496Z"
      fill="#0E0F23"/>
    <path fill-rule="evenodd" clip-rule="evenodd"
          d="M25.9935 18.3833C24.7102 20.2166 20.2185 19.2999 15.9102 16.2749C11.5102 13.2499 8.9435 9.39994 10.2268 7.56661C11.5102 5.73327 16.0018 6.64994 20.3102 9.67494C24.6185 12.6999 27.1852 16.5499 25.9935 18.3833ZM21.9602 15.6333C21.3185 16.5499 19.1185 16.0916 16.9185 14.6249C14.8102 13.1583 13.5268 11.2333 14.1685 10.3166C14.8102 9.39994 17.0102 9.85827 19.2102 11.3249C21.3185 12.7916 22.6018 14.7166 21.9602 15.6333Z"
          fill="white"/>
    <path
      d="M9.21823 9.21569C9.21823 9.12402 9.12656 9.03236 9.0349 9.12402C8.94323 9.21569 8.85156 9.21569 8.85156 9.30736C8.94323 9.58235 9.0349 9.76569 9.0349 9.94902C9.0349 10.0407 9.12656 10.1324 9.21823 10.0407C9.3099 10.0407 9.40156 9.94902 9.3099 9.85735C9.3099 9.67402 9.3099 9.49069 9.21823 9.21569Z"
      fill="white"/>
    <path
      d="M9.67637 10.6833C9.67637 10.5917 9.5847 10.5 9.49303 10.5917C9.40137 10.6833 9.40137 10.6833 9.40137 10.775C10.4097 13.0667 12.518 15.5417 15.268 17.375C15.3597 17.4667 15.4514 17.375 15.543 17.375C15.6347 17.2833 15.543 17.1917 15.543 17.1C12.7014 15.2667 10.6847 12.8833 9.67637 10.6833Z"
      fill="white"/>
    <path
      d="M20.7663 19.6666C20.6747 19.6666 20.583 19.6666 20.583 19.7583C20.583 19.85 20.583 19.9416 20.6747 19.9416C20.9497 20.0333 21.3163 20.125 21.5913 20.2166C21.683 20.2166 21.7747 20.2166 21.7747 20.125C21.7747 20.0333 21.7747 19.9416 21.683 19.9416C21.408 19.85 21.0413 19.7583 20.7663 19.6666Z"
      fill="white"/>
    <path
      d="M22.4177 20.0324C22.326 20.0324 22.2344 20.124 22.2344 20.2157C22.2344 20.3074 22.326 20.399 22.4177 20.399C23.151 20.4907 23.976 20.5824 24.6177 20.4907C24.7094 20.4907 24.801 20.399 24.801 20.3074C24.801 20.2157 24.7094 20.124 24.6177 20.124C23.8844 20.2157 23.151 20.124 22.4177 20.0324Z"
      fill="white"/>
  </g>
  <defs>
    <linearGradient id="paint0_linear" x1="12.9258" y1="5.45342" x2="16.3071" y2="17.0641"
                    gradientUnits="userSpaceOnUse">
      <stop stop-color="#03B8FF"/>
      <stop offset="1" stop-color="#FA52A0"/>
    </linearGradient>
    <linearGradient id="paint1_linear" x1="15.7094" y1="4.6415" x2="19.0907" y2="16.2523"
                    gradientUnits="userSpaceOnUse">
      <stop stop-color="#03B8FF"/>
      <stop offset="1" stop-color="#FA52A0"/>
    </linearGradient>
    <linearGradient id="paint2_linear" x1="10.1492" y1="6.26146" x2="13.5305" y2="17.8722"
                    gradientUnits="userSpaceOnUse">
      <stop stop-color="#03B8FF"/>
      <stop offset="1" stop-color="#FA52A0"/>
    </linearGradient>
    <clipPath id="clip0">
      <rect width="22" height="22" fill="white" transform="translate(5 5)"/>
    </clipPath>
  </defs>
</svg>
