<svg width="44" height="44" viewBox="0 0 44 44" fill="none" xmlns="http://www.w3.org/2000/svg">
  <path
    d="M22 44C34.1503 44 44 34.1503 44 22C44 9.84974 34.1503 0 22 0C9.84974 0 0 9.84974 0 22C0 34.1503 9.84974 44 22 44Z"
    fill="black"/>
  <path
    d="M22 44C34.1503 44 44 34.1503 44 22C44 9.84974 34.1503 0 22 0C9.84974 0 0 9.84974 0 22C0 34.1503 9.84974 44 22 44Z"
    fill="#2775C9"/>
  <path style="mix-blend-mode:soft-light"
        d="M22 44C34.1503 44 44 34.1503 44 22C44 9.84974 34.1503 0 22 0C9.84974 0 0 9.84974 0 22C0 34.1503 9.84974 44 22 44Z"
        fill="url(#paint0_linear)"/>
  <path
    d="M21.6332 38.8667C12.1146 38.8667 4.3999 31.152 4.3999 21.6333C4.3999 12.1147 12.1146 4.4 21.6332 4.4C31.1519 4.4 38.8666 12.1147 38.8666 21.6333C38.8666 26.2039 37.0509 30.5873 33.819 33.8191C30.5872 37.051 26.2038 38.8667 21.6332 38.8667ZM20.6066 15.2387C19.6637 15.2854 18.7723 15.683 18.1074 16.3532C17.4426 17.0235 17.0523 17.9181 17.0132 18.8613C17.0132 20.636 18.0986 21.7947 20.4012 22.2787L22.0146 22.66C23.5839 23.0267 24.2292 23.5547 24.2292 24.4493C24.2292 25.344 23.0999 26.224 21.6332 26.224C21.1123 26.2718 20.5884 26.1719 20.1215 25.9359C19.6546 25.6999 19.2636 25.3372 18.9932 24.8893C18.9131 24.7194 18.7866 24.5756 18.6284 24.4744C18.4701 24.3732 18.2864 24.3187 18.0986 24.3173H17.2332C17.1667 24.3297 17.1032 24.355 17.0465 24.392C16.9898 24.4289 16.941 24.4767 16.9028 24.5326C16.8647 24.5885 16.8379 24.6513 16.8241 24.7176C16.8104 24.7839 16.8098 24.8522 16.8226 24.9187C17.0334 25.7789 17.5234 26.5451 18.2161 27.0971C18.9088 27.6491 19.7649 27.9558 20.6506 27.9693V29.2013C20.6506 29.4756 20.7595 29.7386 20.9534 29.9325C21.1473 30.1264 21.4103 30.2353 21.6846 30.2353C21.9588 30.2353 22.2218 30.1264 22.4157 29.9325C22.6096 29.7386 22.7186 29.4756 22.7186 29.2013V27.9547C23.72 27.9433 24.6774 27.5415 25.3869 26.8347C26.0964 26.1279 26.502 25.172 26.5172 24.1707C26.5172 22.308 25.4466 21.2373 22.9092 20.6947L21.4426 20.372C19.9759 20.0053 19.2866 19.5213 19.2866 18.7C19.2866 17.8787 20.1666 16.9693 21.6332 16.9693C22.0951 16.9211 22.5611 17.0076 22.975 17.2184C23.3888 17.4292 23.7327 17.7553 23.9652 18.1573C24.0595 18.3581 24.2087 18.528 24.3956 18.6474C24.5825 18.7669 24.7994 18.8308 25.0212 18.832H25.7106C25.8673 18.7937 26.0027 18.6954 26.0877 18.5582C26.1728 18.4211 26.2006 18.2561 26.1652 18.0987C25.9665 17.3044 25.5221 16.5931 24.8952 16.0664C24.2684 15.5396 23.4912 15.2243 22.6746 15.1653V14.1533C22.6746 13.8791 22.5656 13.6161 22.3717 13.4222C22.1778 13.2283 21.9148 13.1193 21.6406 13.1193C21.3663 13.1193 21.1033 13.2283 20.9094 13.4222C20.7155 13.6161 20.6066 13.8791 20.6066 14.1533V15.2387ZM8.7119 21.6333C8.71358 24.335 9.564 26.9679 11.143 29.1602C12.7221 31.3524 14.9499 32.9931 17.5119 33.8507H17.7172C17.8923 33.8507 18.0602 33.7811 18.1839 33.6574C18.3077 33.5336 18.3772 33.3657 18.3772 33.1907V32.8827C18.3777 32.6096 18.2971 32.3426 18.1457 32.1155C17.9942 31.8883 17.7788 31.7112 17.5266 31.6067C15.5313 30.8013 13.8223 29.4181 12.6188 27.6345C11.4153 25.8509 10.7723 23.7483 10.7723 21.5967C10.7723 19.445 11.4153 17.3425 12.6188 15.5589C13.8223 13.7753 15.5313 12.392 17.5266 11.5867C17.7776 11.4847 17.9926 11.3103 18.1441 11.0856C18.2956 10.861 18.3768 10.5963 18.3772 10.3253V9.988C18.3782 9.88896 18.3552 9.79114 18.3103 9.70285C18.2654 9.61457 18.1999 9.53841 18.1193 9.48083C18.0387 9.42326 17.9454 9.38598 17.8473 9.37214C17.7493 9.3583 17.6493 9.36831 17.5559 9.40133C14.9833 10.2521 12.7442 11.8919 11.1566 14.0877C9.56897 16.2835 8.71358 18.9237 8.7119 21.6333ZM34.5546 21.6333C34.5498 18.9341 33.698 16.3045 32.1192 14.1152C30.5403 11.9259 28.3142 10.2874 25.7546 9.43067H25.5346C25.3517 9.43067 25.1764 9.50329 25.0471 9.63257C24.9179 9.76184 24.8452 9.93718 24.8452 10.12V10.34C24.8512 10.6229 24.9388 10.898 25.0975 11.1322C25.2562 11.3664 25.4793 11.5497 25.7399 11.66C27.7306 12.4677 29.435 13.851 30.635 15.633C31.835 17.4149 32.4761 19.5143 32.4761 21.6627C32.4761 23.811 31.835 25.9104 30.635 27.6924C29.435 29.4743 27.7306 30.8576 25.7399 31.6653C25.4843 31.7768 25.2658 31.9587 25.1099 32.1899C24.9541 32.4211 24.8673 32.6919 24.8599 32.9707V33.22C24.8612 33.3287 24.8881 33.4356 24.9386 33.5319C24.989 33.6283 25.0616 33.7113 25.1502 33.7742C25.2389 33.8372 25.3412 33.8782 25.4488 33.894C25.5564 33.9099 25.6662 33.9 25.7692 33.8653C28.3309 33.0045 30.5572 31.3605 32.1337 29.1655C33.7101 26.9706 34.557 24.3357 34.5546 21.6333Z"
    fill="white"/>
  <defs>
    <linearGradient id="paint0_linear" x1="22" y1="0" x2="22" y2="44" gradientUnits="userSpaceOnUse">
      <stop stop-color="white" stop-opacity="0.5"/>
      <stop offset="1" stop-opacity="0.5"/>
    </linearGradient>
  </defs>
</svg>
