<svg width="44" height="44" viewBox="0 0 44 44" fill="none" xmlns="http://www.w3.org/2000/svg">
  <path
    d="M22 44C34.1503 44 44 34.1503 44 22C44 9.84974 34.1503 0 22 0C9.84974 0 0 9.84974 0 22C0 34.1503 9.84974 44 22 44Z"
    fill="black"/>
  <path
    d="M22 44C34.1503 44 44 34.1503 44 22C44 9.84974 34.1503 0 22 0C9.84974 0 0 9.84974 0 22C0 34.1503 9.84974 44 22 44Z"
    fill="#26A17B"/>
  <path style="mix-blend-mode:soft-light"
        d="M22 44C34.1503 44 44 34.1503 44 22C44 9.84974 34.1503 0 22 0C9.84974 0 0 9.84974 0 22C0 34.1503 9.84974 44 22 44Z"
        fill="url(#paint0_linear)"/>
  <g filter="url(#filter0_d)">
    <path
      d="M24.8186 24.0285V24.0256C24.6572 24.0373 23.8256 24.0872 21.9703 24.0872C20.4889 24.0872 19.4461 24.0432 19.0795 24.0256V24.03C13.3771 23.7792 9.12082 22.7863 9.12082 21.5983C9.12082 20.4117 13.3771 19.4188 19.0795 19.1636V23.0415C19.452 23.0679 20.5197 23.1309 21.9952 23.1309C23.7655 23.1309 24.6528 23.0576 24.8186 23.0429V19.1665C30.5092 19.4203 34.7552 20.4132 34.7552 21.5983C34.7552 22.7863 30.5092 23.7763 24.8186 24.0285ZM24.8186 18.7632V15.2931H32.7591V10.0013H11.1389V15.2931H19.0795V18.7617C12.6261 19.058 7.77295 20.3369 7.77295 21.8681C7.77295 23.3993 12.6261 24.6768 19.0795 24.9745V36.0948H24.8186V24.9716C31.2616 24.6753 36.1031 23.3979 36.1031 21.8681C36.1031 20.3384 31.2616 19.0609 24.8186 18.7632Z"
      fill="black"/>
  </g>
  <path
    d="M24.8186 24.0285V24.0256C24.6572 24.0373 23.8256 24.0872 21.9703 24.0872C20.4889 24.0872 19.4461 24.0432 19.0795 24.0256V24.03C13.3771 23.7792 9.12082 22.7863 9.12082 21.5983C9.12082 20.4117 13.3771 19.4188 19.0795 19.1636V23.0415C19.452 23.0679 20.5197 23.1309 21.9952 23.1309C23.7655 23.1309 24.6528 23.0576 24.8186 23.0429V19.1665C30.5092 19.4203 34.7552 20.4132 34.7552 21.5983C34.7552 22.7863 30.5092 23.7763 24.8186 24.0285ZM24.8186 18.7632V15.2931H32.7591V10.0013H11.1389V15.2931H19.0795V18.7617C12.6261 19.058 7.77295 20.3369 7.77295 21.8681C7.77295 23.3993 12.6261 24.6768 19.0795 24.9745V36.0948H24.8186V24.9716C31.2616 24.6753 36.1031 23.3979 36.1031 21.8681C36.1031 20.3384 31.2616 19.0609 24.8186 18.7632Z"
    fill="white"/>
  <defs>
    <filter id="filter0_d" x="6.77295" y="9.50134" width="30.3301" height="28.0935" filterUnits="userSpaceOnUse"
            color-interpolation-filters="sRGB">
      <feFlood flood-opacity="0" result="BackgroundImageFix"/>
      <feColorMatrix in="SourceAlpha" type="matrix" values="0 0 0 0 0 0 0 0 0 0 0 0 0 0 0 0 0 0 127 0"
                     result="hardAlpha"/>
      <feOffset dy="0.5"/>
      <feGaussianBlur stdDeviation="0.5"/>
      <feColorMatrix type="matrix" values="0 0 0 0 0 0 0 0 0 0 0 0 0 0 0 0 0 0 0.204257 0"/>
      <feBlend mode="normal" in2="BackgroundImageFix" result="effect1_dropShadow"/>
      <feBlend mode="normal" in="SourceGraphic" in2="effect1_dropShadow" result="shape"/>
    </filter>
    <linearGradient id="paint0_linear" x1="22" y1="0" x2="22" y2="44" gradientUnits="userSpaceOnUse">
      <stop stop-color="white" stop-opacity="0.5"/>
      <stop offset="1" stop-opacity="0.5"/>
    </linearGradient>
  </defs>
</svg>
