<svg width="32" height="32" viewBox="0 0 32 32" fill="none" xmlns="http://www.w3.org/2000/svg">
  <path
    d="M16 32C24.8366 32 32 24.8366 32 16C32 7.16344 24.8366 0 16 0C7.16344 0 0 7.16344 0 16C0 24.8366 7.16344 32 16 32Z"
    fill="#006AE3"/>
  <path d="M15.21 22.3599V9.75391H16.582V22.3599H15.21Z" fill="white"/>
  <path
    d="M22.197 13.954L17.957 15.078L17.012 10.678L18.272 10.394L18.77 12.478C18.77 12.478 19.915 10.6 18.388 8.65396C17.488 7.65396 17.061 7.61196 16.052 7.45396C15.164 7.32696 13.1 7.62696 12.485 10.036C12.225 11.588 12.518 12.736 14.518 14.239L14.406 15.912C14.406 15.912 12.173 14.339 11.597 13.236C11.152 12.363 10.387 10.639 11.767 8.23896C12.509 7.03896 13.973 5.88796 16.552 6.00896C17.848 6.06296 21.015 7.64896 20.524 11.351C20.439 12.045 20.079 12.969 20.079 12.969L21.819 12.582L22.197 13.954ZM19.776 23.818C19 24.997 17.506 26.108 14.933 25.921C13.636 25.833 10.515 24.163 11.103 20.475C11.206 19.785 11.591 18.872 11.591 18.872L9.842 19.212L9.5 17.833L13.77 16.821L14.6 21.245L13.33 21.497L12.888 19.397C12.888 19.397 11.694 21.242 13.167 23.23C14.039 24.254 14.464 24.306 15.473 24.49C16.355 24.642 18.427 24.394 19.106 22.003C19.406 20.46 19.142 19.303 17.185 17.745L17.342 16.075C17.342 16.075 19.533 17.705 20.079 18.824C20.497 19.712 21.215 21.457 19.776 23.818Z"
    fill="white"/>
</svg>
